<?xml version="1.0" standalone="no"?>
<!DOCTYPE svg PUBLIC "-//W3C//DTD SVG 20010904//EN"
 "http://www.w3.org/TR/2001/REC-SVG-20010904/DTD/svg10.dtd">
<svg version="1.0" xmlns="http://www.w3.org/2000/svg"
 width="600.000000pt" height="600.000000pt" viewBox="0 0 600.000000 600.000000"
 preserveAspectRatio="xMidYMid meet">
<g transform="translate(0.000000,600.000000) scale(0.100000,-0.100000)"
fill="#000000" stroke="none">
<path d="M5173 4701 c-12 -25 -86 -174 -163 -331 -77 -157 -140 -290 -140
-295 0 -7 28 -11 71 -10 l71 0 20 40 c12 22 24 42 28 45 7 4 211 5 256 1 6 -1
17 -19 24 -41 7 -22 16 -41 19 -41 3 -1 38 -2 78 -3 l71 -2 -23 50 c-157 354
-279 622 -284 627 -3 4 -16 -14 -28 -40z m61 -340 c20 -47 36 -88 36 -93 0 -4
-36 -8 -80 -8 -44 0 -80 4 -80 9 0 11 82 183 85 179 1 -2 19 -41 39 -87z"/>
<path d="M754 4731 c-98 -25 -186 -97 -231 -188 -69 -143 -20 -333 111 -422
133 -92 313 -83 431 21 l46 41 -42 43 -42 43 -39 -34 c-76 -65 -194 -70 -271
-11 -58 45 -82 96 -82 177 0 55 5 73 30 114 68 110 229 132 324 44 27 -25 47
-19 90 25 l32 33 -44 37 c-65 53 -131 79 -212 82 -38 2 -84 0 -101 -5z"/>
<path d="M1376 4657 c-22 -45 -95 -195 -163 -333 -68 -138 -123 -253 -123
-256 0 -2 33 -3 72 -3 l73 0 20 40 c11 22 21 42 22 44 3 6 253 7 262 1 5 -3
17 -23 27 -45 l19 -40 73 0 c39 -1 72 0 72 2 0 2 -31 72 -69 156 -37 84 -105
234 -151 335 -45 100 -85 182 -89 182 -3 0 -24 -37 -45 -83z m85 -305 l38 -87
-39 -3 c-22 -2 -59 -2 -83 0 l-44 3 40 92 c23 51 43 90 46 87 3 -2 22 -44 42
-92z"/>
<path d="M2981 4724 c-85 -30 -168 -100 -204 -171 -83 -164 -14 -374 151 -457
179 -91 389 -21 477 159 72 146 15 342 -124 429 -84 53 -215 70 -300 40z m182
-123 c19 -7 53 -32 75 -55 83 -90 82 -213 -3 -300 -135 -139 -355 -39 -355
161 0 55 43 135 89 167 63 44 119 52 194 27z"/>
<path d="M4019 4728 c-1 -7 -2 -158 -3 -335 -1 -209 3 -324 9 -325 27 -4 102
-5 115 -2 14 3 16 31 15 194 0 105 2 190 5 190 3 0 70 -57 150 -126 80 -70
184 -160 233 -201 l87 -74 1 113 c1 123 1 342 0 481 l-1 87 -68 0 -68 0 -1
-167 c0 -93 -1 -181 -2 -196 -1 -27 -7 -23 -124 80 -264 231 -336 293 -342
293 -3 0 -5 -6 -6 -12z"/>
<path d="M1762 4398 l3 -333 160 -1 c88 0 165 1 171 3 14 5 14 113 0 114 -6 1
-51 2 -101 3 l-90 1 -3 273 -2 272 -70 0 -70 0 2 -332z"/>
<path d="M2150 4680 c0 -27 -1 -124 -1 -215 0 -91 1 -218 1 -283 l0 -118 63 2
c34 1 65 2 68 3 3 0 6 150 6 331 l0 330 -69 0 -68 0 0 -50z"/>
<path d="M2364 4398 l1 -333 68 0 67 0 1 40 c0 22 1 87 2 145 l2 105 93 -2 93
-1 -3 62 -3 61 -85 -1 c-50 0 -88 4 -92 10 -4 6 -8 37 -8 69 l0 57 114 0 114
0 1 60 0 60 -183 0 -183 0 1 -332z"/>
<path d="M3500 4673 c-2 -230 2 -598 6 -603 3 -3 34 -5 69 -5 l62 0 0 130 -1
130 36 3 c31 3 37 -1 43 -20 4 -13 16 -44 27 -69 11 -26 32 -75 47 -110 l26
-63 77 -2 76 -1 -30 71 c-17 39 -45 105 -63 146 l-33 74 21 15 c106 74 112
229 12 313 -42 36 -104 48 -242 48 l-133 0 0 -57z m270 -78 c52 -27 50 -108
-3 -136 -35 -19 -116 -19 -125 0 -6 13 -8 107 -3 144 2 13 101 7 131 -8z"/>
<path d="M4692 4400 c0 -181 3 -331 7 -331 3 -1 34 -2 69 -3 l62 -2 0 333 0
333 -69 0 -68 0 -1 -330z"/>
<path d="M1585 3478 c-71 -145 -221 -450 -333 -678 -112 -228 -255 -518 -317
-645 -62 -126 -185 -377 -274 -558 -88 -180 -161 -329 -161 -332 0 -3 123 -5
273 -5 l274 0 73 160 c67 146 76 160 99 161 14 0 233 1 486 1 l459 1 68 -159
67 -159 270 -3 270 -2 -18 42 c-24 55 -195 436 -228 508 -14 30 -45 100 -70
155 -25 55 -53 118 -63 140 -10 22 -38 85 -63 140 -25 55 -56 125 -70 155 -14
30 -75 168 -137 305 -62 138 -154 342 -205 455 -105 231 -225 499 -246 548 -8
17 -16 32 -20 32 -3 0 -63 -118 -134 -262z m156 -893 c9 -22 54 -128 99 -235
45 -107 99 -235 120 -285 21 -49 37 -92 35 -95 -4 -7 -615 -6 -616 0 -2 6 15
44 111 250 37 80 91 197 120 260 29 63 61 133 73 155 l20 40 10 -25 c6 -14 18
-43 28 -65z"/>
<path d="M2930 2470 l0 -1210 625 0 625 0 -2 218 -3 217 -360 1 c-198 1 -366
2 -372 3 -10 1 -13 206 -13 991 l0 990 -250 0 -250 0 0 -1210z"/>
<path d="M4267 3673 c-2 -5 -4 -549 -4 -1210 l0 -1203 623 0 624 0 0 218 0
217 -372 0 -373 0 0 993 0 992 -247 0 c-136 0 -249 -3 -251 -7z"/>
</g>
</svg>
