<svg id="Layer_4" data-name="Layer 4" xmlns="http://www.w3.org/2000/svg" viewBox="0 0 136 100"><defs><style>.cls-1{fill:#fff;}.cls-2{fill:#fdb71c;}</style></defs><title>Ca-Gov-Logo-White</title><path class="cls-1" d="M83,41.76q.55-1.79,2.8-9.58.55-2,2.8-8.1,2.25-6.25,3.59-10a46.79,46.79,0,0,0-8,7c-9.72,10.47-21,23.13-25,29.76,1.52-.37,4.57-3.56,14.25-6.89A36.74,36.74,0,0,1,83,41.76Zm-1.72,6.68c-30.62,0-44,48.82-65.22,48.82q-7.23,0-11.18-6.49a17.78,17.78,0,0,1-2.53-9.46Q2.39,68,15,47.62,25.77,30.31,37.7,19.74,48,10.65,55.39,10.65a7.49,7.49,0,0,1,6.37,3,9.11,9.11,0,0,1,1.79,5.69q0,6-4,13.67a49.85,49.85,0,0,1-8.76,11.88q-3.45,3.4-5.43,3.4A3.17,3.17,0,0,1,43,47a3.13,3.13,0,0,1-.8-2.1q0-2.16,3.76-4.95a35.66,35.66,0,0,0,8.45-8.66Q59,24.44,59,19.74a4.16,4.16,0,0,0-.83-2.85,3.2,3.2,0,0,0-2.5-.93q-3.4,0-9.64,4.95A100.33,100.33,0,0,0,31,36.07a105.24,105.24,0,0,0-15.33,24Q10.24,72.32,10.24,81A10.7,10.7,0,0,0,12.64,88a7.8,7.8,0,0,0,6.48,3.28c9.7-.36,21.8-22.51,25.53-27.66,37-51.1,39.85-51.24,45.45-56.55Q95,2.41,97.59,2.4a3.64,3.64,0,0,1,2.78,1.3,3.94,3.94,0,0,1,1,2.6,19.87,19.87,0,0,1-1.73,6.06Q96.67,20,94,28.62,91.6,36.29,90.8,40.38a10.69,10.69,0,0,0,1.48-.06q1.79-.06,3-.06,3.58,0,3.58,2.72a4.12,4.12,0,0,1-.77,2.32,3.08,3.08,0,0,1-1.76,1.39,9.41,9.41,0,0,1-2,.12,23.19,23.19,0,0,0-5.23.43c-.44,1.3-1.56,12.3-3.23,12.68-5.15,4.5-4.76-10-4.48-11.47Z"/><path class="cls-2" d="M51,81.84a4.72,4.72,0,0,1,3.45,1.42,4.68,4.68,0,0,1,1.43,3.45,4.88,4.88,0,1,1-9.77,0A4.86,4.86,0,0,1,51,81.84Z"/><path class="cls-2" d="M80.82,68.9l-3.42,3.38a10.1,10.1,0,0,0-7.56-3.43,8.64,8.64,0,0,0-6.3,2.49A8.18,8.18,0,0,0,61,77.41a8.39,8.39,0,0,0,2.64,6.25,9,9,0,0,0,6.5,2.56,8,8,0,0,0,4.24-1.06,7.46,7.46,0,0,0,2.78-3.31H69.78V77.31H82.61l0,1.08a12.47,12.47,0,0,1-1.74,6.35,12.12,12.12,0,0,1-4.5,4.58,12.83,12.83,0,0,1-6.48,1.58,14.4,14.4,0,0,1-7.09-1.73,12.64,12.64,0,0,1-4.93-4.92,13.7,13.7,0,0,1-1.81-6.89,12.78,12.78,0,0,1,3.35-8.81A13.21,13.21,0,0,1,69.8,64.09,15.77,15.77,0,0,1,76,65.32a14.29,14.29,0,0,1,4.79,3.58Z"/><path class="cls-2" d="M97.52,64.09A12.66,12.66,0,0,1,106.83,68a13,13,0,0,1,3.89,9.56A12.91,12.91,0,0,1,106.89,87,13.32,13.32,0,0,1,88,86.92a13.41,13.41,0,0,1,9.51-22.83Zm-.07,4.76a8,8,0,0,0-5.93,2.46,8.6,8.6,0,0,0-2.4,6.26,8.17,8.17,0,0,0,3,6.69,8.27,8.27,0,0,0,5.39,1.93,7.86,7.86,0,0,0,5.86-2.5,9,9,0,0,0,0-12.32,7.94,7.94,0,0,0-5.93-2.52Z"/><polygon class="cls-2" points="109.82 64.73 114.81 64.73 121.23 82.86 127.77 64.73 132.74 64.73 123.53 90.25 118.85 90.25 109.82 64.73 109.82 64.73"/></svg>