<?xml version="1.0" encoding="UTF-8"?>
<svg enable-background="new 0 0 81.6 60" version="1.1" viewBox="0 0 81.6 60" xml:space="preserve" xmlns="http://www.w3.org/2000/svg">
<style type="text/css">
	.st0{fill:#FFFFFF;}
	.st1{fill:#FDB71C;}
</style>
<title>Ca-Gov-Logo-White</title>
<path class="st0" d="m49.7 25c0.2-0.7 0.8-2.6 1.7-5.8 0.2-0.8 0.8-2.4 1.7-4.9s1.6-4.5 2.2-6c-1.8 1.2-3.4 2.6-4.8 4.2-5.9 6.3-12.7 14-15.1 18 0.9-0.2 2.8-2.1 8.6-4.2 1.8-0.7 3.7-1.2 5.7-1.3zm-1.1 4c-18.4 0-26.5 29.5-39.3 29.5-2.9 0-5.2-1.3-6.7-3.9-1-1.7-1.6-3.7-1.5-5.7 0-5.4 2.6-12.1 7.6-20.3 4.3-7 8.9-12.6 13.7-16.8 4.1-3.8 7.6-5.6 10.6-5.6 1.5-0.1 3 0.6 3.9 1.8 0.7 1 1.1 2.2 1.1 3.4 0 2.4-0.8 5.2-2.4 8.2-1.4 2.6-3.2 5.1-5.3 7.2-1.4 1.4-2.5 2.1-3.3 2.1-0.6 0-1.1-0.3-1.4-0.8-0.3-0.3-0.5-0.8-0.5-1.3 0-0.9 0.8-1.9 2.3-3 2-1.4 3.7-3.2 5.1-5.2 1.8-2.8 2.8-5.1 2.8-7 0.1-0.6-0.1-1.2-0.5-1.7-0.4-0.4-0.9-0.6-1.5-0.6-1.4 0-3.3 1-5.8 3-3.3 2.7-6.4 5.8-9.1 9.1-3.8 4.5-6.9 9.4-9.4 14.6-2.2 4.9-3.3 9.1-3.3 12.6 0 1.5 0.5 3 1.4 4.2 0.9 1.3 2.4 2 3.9 2 5.9-0.2 13.2-13.6 15.4-16.7 22.5-30.8 24.2-30.9 27.6-34.1 2-1.9 3.5-2.8 4.5-2.8 0.6 0 1.3 0.3 1.7 0.8 0.4 0.4 0.6 1 0.6 1.6-0.2 1.3-0.5 2.5-1 3.7-1.2 3.1-2.3 6.3-3.4 9.8-1 3.1-1.6 5.5-1.9 7.1h0.9 1.8c1.4 0 2.2 0.5 2.2 1.6 0 0.5-0.2 1-0.5 1.4-0.2 0.4-0.6 0.7-1.1 0.8h-1.3c-1.1 0-2.1 0.1-3.2 0.3-0.3 0.8-0.9 7.4-1.9 7.7-3.1 2.6-2.9-6.1-2.8-7z"/>
<path class="st1" d="m30.4 49.1c0.8 0 1.5 0.3 2.1 0.9 0.6 0.5 0.9 1.3 0.9 2.1 0 1.6-1.3 2.9-2.9 2.9s-2.9-1.3-2.9-2.9c-0.2-1.6 1.1-2.9 2.8-3-0.1 0 0 0 0 0z"/>
<path class="st1" d="m48.4 41.3-2.1 2c-1.2-1.3-2.8-2.1-4.6-2.1-1.4 0-2.8 0.5-3.8 1.5s-1.6 2.3-1.5 3.7c0 1.4 0.6 2.8 1.6 3.8s2.5 1.6 3.9 1.5c0.9 0 1.8-0.2 2.6-0.6 0.7-0.5 1.3-1.2 1.7-2h-4.5v-2.7h7.7v0.7c0 1.3-0.4 2.7-1.1 3.8-0.6 1.1-1.6 2.1-2.7 2.8-1.2 0.7-2.5 1-3.9 1-1.5 0-3-0.3-4.3-1s-2.3-1.7-3-3-1.1-2.7-1.1-4.2c0-2 0.7-3.9 2-5.3 1.6-1.8 3.9-2.8 6.3-2.7 1.3 0 2.6 0.2 3.7 0.7 1.3 0.5 2.2 1.2 3.1 2.1z"/>
<path class="st1" d="m58.4 38.4c2.1 0 4.2 0.8 5.6 2.4 1.5 1.5 2.4 3.6 2.3 5.8 0 2.1-0.8 4.2-2.3 5.7-3.1 3.1-8.2 3.1-11.4 0-3.1-3.2-3.1-8.3 0.1-11.4 1.6-1.6 3.6-2.5 5.7-2.5zm0 2.9c-1.3 0-2.6 0.5-3.6 1.5s-1.5 2.4-1.4 3.8c-0.1 1.6 0.6 3.1 1.8 4 0.9 0.8 2.1 1.2 3.3 1.2 1.3 0 2.6-0.5 3.5-1.5 2-2.1 2-5.3 0-7.4-1-1.1-2.3-1.6-3.6-1.6z"/>
<polygon class="st1" points="65.9 38.8 68.9 38.8 72.7 49.8 76.7 38.8 79.7 38.8 74.1 54.2 71.3 54.2"/>
</svg>
