<svg viewBox="0,0,200,100"><g transform="translate(0,0)"></g><g class="fg-bars pos-rate"><g><rect x="200" y="85.50076923076924" width="2" height="14.499230769230763" id="pos-rate-0"></rect></g><g><rect x="196.36363636363637" y="71.26076923076923" width="2" height="28.739230769230772" id="pos-rate-1"></rect></g><g><rect x="192.72727272727272" y="51.90846153846154" width="2" height="48.09153846153846" id="pos-rate-2"></rect></g><g><rect x="189.0909090909091" y="12.07538461538461" width="2" height="87.9246153846154" id="pos-rate-3"></rect></g><g><rect x="185.45454545454544" y="29.84307692307693" width="2" height="70.15692307692308" id="pos-rate-4"></rect></g><g><rect x="181.8181818181818" y="27.885384615384613" width="2" height="72.11461538461539" id="pos-rate-5"></rect></g><g><rect x="178.1818181818182" y="25.182307692307692" width="2" height="74.81769230769231" id="pos-rate-6"></rect></g><g><rect x="174.54545454545456" y="24.391538461538463" width="2" height="75.60846153846154" id="pos-rate-7"></rect></g><g><rect x="170.9090909090909" y="67.72384615384614" width="2" height="32.27615384615386" id="pos-rate-8"></rect></g><g><rect x="167.27272727272728" y="41.49" width="2" height="58.51" id="pos-rate-9"></rect></g><g><rect x="163.63636363636363" y="3.735384615384618" width="2" height="96.26461538461538" id="pos-rate-10"></rect></g><g><rect x="160" y="21.51384615384615" width="2" height="78.48615384615385" id="pos-rate-11"></rect></g><g><rect x="156.36363636363637" y="22.28692307692308" width="2" height="77.71307692307693" id="pos-rate-12"></rect></g><g><rect x="152.72727272727275" y="19.27923076923077" width="2" height="80.72076923076924" id="pos-rate-13"></rect></g><g><rect x="149.0909090909091" y="19.587692307692308" width="2" height="80.41230769230769" id="pos-rate-14"></rect></g><g><rect x="145.45454545454547" y="68.05692307692308" width="2" height="31.943076923076916" id="pos-rate-15"></rect></g><g><rect x="141.8181818181818" y="42.62076923076923" width="2" height="57.37923076923077" id="pos-rate-16"></rect></g><g><rect x="138.1818181818182" y="4.183076923076923" width="2" height="95.81692307692308" id="pos-rate-17"></rect></g><g><rect x="134.54545454545453" y="22.764615384615382" width="2" height="77.23538461538462" id="pos-rate-18"></rect></g><g><rect x="130.9090909090909" y="22.34307692307692" width="2" height="77.65692307692308" id="pos-rate-19"></rect></g><g><rect x="127.27272727272727" y="22.390769230769237" width="2" height="77.60923076923076" id="pos-rate-20"></rect></g><g><rect x="123.63636363636363" y="26.130769230769236" width="2" height="73.86923076923077" id="pos-rate-21"></rect></g><g><rect x="120" y="70.95615384615385" width="2" height="29.043846153846147" id="pos-rate-22"></rect></g><g><rect x="116.36363636363636" y="44.51846153846154" width="2" height="55.48153846153846" id="pos-rate-23"></rect></g><g><rect x="112.72727272727275" y="15.174615384615386" width="2" height="84.82538461538462" id="pos-rate-24"></rect></g><g><rect x="109.09090909090908" y="32.64153846153847" width="2" height="67.35846153846154" id="pos-rate-25"></rect></g><g><rect x="105.45454545454547" y="37.48538461538462" width="2" height="62.51461538461538" id="pos-rate-26"></rect></g><g><rect x="101.81818181818181" y="30.318461538461538" width="2" height="69.68153846153847" id="pos-rate-27"></rect></g><g><rect x="98.18181818181819" y="32.97230769230769" width="2" height="67.02769230769232" id="pos-rate-28"></rect></g><g><rect x="94.54545454545456" y="73.25692307692307" width="2" height="26.743076923076927" id="pos-rate-29"></rect></g><g><rect x="90.90909090909092" y="51.11230769230769" width="2" height="48.88769230769231" id="pos-rate-30"></rect></g><g><rect x="87.27272727272728" y="19.993076923076924" width="2" height="80.00692307692307" id="pos-rate-31"></rect></g><g><rect x="83.63636363636364" y="34.129230769230766" width="2" height="65.87076923076924" id="pos-rate-32"></rect></g><g><rect x="80" y="35.618461538461546" width="2" height="64.38153846153845" id="pos-rate-33"></rect></g><g><rect x="76.36363636363637" y="31.539230769230763" width="2" height="68.46076923076924" id="pos-rate-34"></rect></g><g><rect x="72.72727272727273" y="38.881538461538454" width="2" height="61.118461538461546" id="pos-rate-35"></rect></g><g><rect x="69.0909090909091" y="76.95615384615384" width="2" height="23.04384615384616" id="pos-rate-36"></rect></g><g><rect x="65.45454545454545" y="54.18923076923077" width="2" height="45.81076923076923" id="pos-rate-37"></rect></g><g><rect x="61.81818181818181" y="26.152307692307698" width="2" height="73.8476923076923" id="pos-rate-38"></rect></g><g><rect x="58.18181818181818" y="37.52538461538462" width="2" height="62.47461538461538" id="pos-rate-39"></rect></g><g><rect x="54.54545454545454" y="35.53307692307692" width="2" height="64.46692307692308" id="pos-rate-40"></rect></g><g><rect x="50.90909090909091" y="34.78769230769231" width="2" height="65.21230769230769" id="pos-rate-41"></rect></g><g><rect x="47.272727272727266" y="44.778461538461535" width="2" height="55.221538461538465" id="pos-rate-42"></rect></g><g><rect x="43.636363636363626" y="80.3253846153846" width="2" height="19.674615384615393" id="pos-rate-43"></rect></g><g><rect x="39.99999999999999" y="56.919999999999995" width="2" height="43.080000000000005" id="pos-rate-44"></rect></g><g><rect x="36.36363636363635" y="29.567692307692305" width="2" height="70.43230769230769" id="pos-rate-45"></rect></g><g><rect x="32.72727272727274" y="40.48615384615385" width="2" height="59.51384615384615" id="pos-rate-46"></rect></g><g><rect x="29.0909090909091" y="40.729230769230774" width="2" height="59.270769230769226" id="pos-rate-47"></rect></g><g><rect x="25.454545454545464" y="39.16" width="2" height="60.84" id="pos-rate-48"></rect></g><g><rect x="21.818181818181827" y="46.74230769230769" width="2" height="53.25769230769231" id="pos-rate-49"></rect></g><g><rect x="18.181818181818187" y="79.62923076923076" width="2" height="20.37076923076924" id="pos-rate-50"></rect></g><g><rect x="14.54545454545455" y="57.42" width="2" height="42.58" id="pos-rate-51"></rect></g><g><rect x="10.909090909090914" y="34.4123076923077" width="2" height="65.5876923076923" id="pos-rate-52"></rect></g><g><rect x="7.272727272727275" y="45.856923076923074" width="2" height="54.143076923076926" id="pos-rate-53"></rect></g><g><rect x="3.6363636363636376" y="46.44538461538461" width="2" height="53.55461538461539" id="pos-rate-54"></rect></g><g><rect x="0" y="44.31615384615385" width="2" height="55.68384615384615" id="pos-rate-55"></rect></g></g><g class="fg-line pos-rate"><path d="M200,43.379450549450546L196.36363636363637,34.64956043956043L192.72727272727272,34.144285714285715L189.0909090909091,32.65593406593407L185.45454545454544,31.464505494505502L181.8181818181818,30.274615384615387L178.1818181818182,29.474835164835167L174.54545454545456,28.631538461538465L170.9090909090909,27.94527472527473L167.27272727272728,27.99285714285714L163.63636363636363,28.15439560439561L160,28.218351648351646L156.36363636363637,28.397032967032963L152.72727272727275,28.405054945054953L149.0909090909091,28.84956043956044L145.45454545454547,29.78428571428572L141.8181818181818,30.19846153846154L138.1818181818182,30.46956043956044L134.54545454545453,32.039780219780226L130.9090909090909,33.450769230769225L127.27272727272727,35.613956043956044L123.63636363636363,36.74648351648351L120,37.723846153846154L116.36363636363636,38.052527472527466L112.72727272727275,38.994505494505496L109.09090909090908,39.682857142857145L105.45454545454547,39.89538461538461L101.81818181818181,39.628681318681316L98.18181818181819,39.803076923076915L94.54545454545456,40.647252747252736L90.90909090909092,41.175714285714285L87.27272727272728,41.61527472527473L83.63636363636364,42.495164835164836L80,42.98032967032967L76.36363636363637,42.96813186813188L72.72727272727273,43.432197802197805L69.0909090909091,44.27461538461539L65.45454545454545,44.75593406593406L61.81818181818181,45.146043956043954L58.18181818181818,45.63395604395605L54.54545454545454,46.05692307692307L50.90909090909091,46.79923076923077L47.272727272727266,47.42384615384615L43.636363636363626,47.704395604395614L39.99999999999999,47.60494505494505L36.36363636363635,47.676373626373625L32.72727272727274,48.36846153846154L29.0909090909091,49.135714285714286L25.454545454545464,49.9523076923077L21.818181818181827,50.6889010989011L18.181818181818187,50.80978021978022L14.54545454545455,51.04593406593406L10.909090909090914,51.21483516483516L7.272727272727275,51.17978021978023L3.6363636363636376,50.864725274725274L0,50.090989010989006"></path></g></svg>