<svg viewBox="0,0,200,100"><g transform="translate(0,0)"></g><g class="fg-bars pos-rate"><g><rect x="200" y="52.47222222222222" width="2" height="47.52777777777778" id="pos-rate-0"></rect></g><g><rect x="196.36363636363637" y="44.894444444444446" width="2" height="55.105555555555554" id="pos-rate-1"></rect></g><g><rect x="192.72727272727272" y="35.79444444444444" width="2" height="64.20555555555556" id="pos-rate-2"></rect></g><g><rect x="189.0909090909091" y="35.62222222222222" width="2" height="64.37777777777778" id="pos-rate-3"></rect></g><g><rect x="185.45454545454544" y="30.361111111111118" width="2" height="69.63888888888889" id="pos-rate-4"></rect></g><g><rect x="181.8181818181818" y="66.55555555555556" width="2" height="33.44444444444444" id="pos-rate-5"></rect></g><g><rect x="178.1818181818182" y="59.32222222222222" width="2" height="40.67777777777778" id="pos-rate-6"></rect></g><g><rect x="174.54545454545456" y="39.83333333333333" width="2" height="60.16666666666667" id="pos-rate-7"></rect></g><g><rect x="170.9090909090909" y="32.75" width="2" height="67.25" id="pos-rate-8"></rect></g><g><rect x="167.27272727272728" y="26.427777777777774" width="2" height="73.57222222222222" id="pos-rate-9"></rect></g><g><rect x="163.63636363636363" y="23.89444444444444" width="2" height="76.10555555555555" id="pos-rate-10"></rect></g><g><rect x="160" y="16.527777777777775" width="2" height="83.47222222222223" id="pos-rate-11"></rect></g><g><rect x="156.36363636363637" y="59.43333333333334" width="2" height="40.56666666666666" id="pos-rate-12"></rect></g><g><rect x="152.72727272727275" y="51.50555555555556" width="2" height="48.49444444444444" id="pos-rate-13"></rect></g><g><rect x="149.0909090909091" y="26.649999999999995" width="2" height="73.35000000000001" id="pos-rate-14"></rect></g><g><rect x="145.45454545454547" y="23.672222222222217" width="2" height="76.32777777777778" id="pos-rate-15"></rect></g><g><rect x="141.8181818181818" y="17.427777777777777" width="2" height="82.57222222222222" id="pos-rate-16"></rect></g><g><rect x="138.1818181818182" y="15.355555555555556" width="2" height="84.64444444444445" id="pos-rate-17"></rect></g><g><rect x="134.54545454545453" y="11.96666666666667" width="2" height="88.03333333333333" id="pos-rate-18"></rect></g><g><rect x="130.9090909090909" y="55.41666666666667" width="2" height="44.58333333333333" id="pos-rate-19"></rect></g><g><rect x="127.27272727272727" y="47.40555555555556" width="2" height="52.59444444444444" id="pos-rate-20"></rect></g><g><rect x="123.63636363636363" y="24.138888888888886" width="2" height="75.86111111111111" id="pos-rate-21"></rect></g><g><rect x="120" y="19.366666666666667" width="2" height="80.63333333333333" id="pos-rate-22"></rect></g><g><rect x="116.36363636363636" y="14.94444444444445" width="2" height="85.05555555555554" id="pos-rate-23"></rect></g><g><rect x="112.72727272727275" y="11.177777777777775" width="2" height="88.82222222222222" id="pos-rate-24"></rect></g><g><rect x="109.09090909090908" y="10.738888888888887" width="2" height="89.26111111111112" id="pos-rate-25"></rect></g><g><rect x="105.45454545454547" y="52.76666666666667" width="2" height="47.23333333333333" id="pos-rate-26"></rect></g><g><rect x="101.81818181818181" y="47.06111111111111" width="2" height="52.93888888888889" id="pos-rate-27"></rect></g><g><rect x="98.18181818181819" y="29.272222222222222" width="2" height="70.72777777777777" id="pos-rate-28"></rect></g><g><rect x="94.54545454545456" y="24" width="2" height="76" id="pos-rate-29"></rect></g><g><rect x="90.90909090909092" y="22.68888888888889" width="2" height="77.3111111111111" id="pos-rate-30"></rect></g><g><rect x="87.27272727272728" y="21.02222222222222" width="2" height="78.97777777777779" id="pos-rate-31"></rect></g><g><rect x="83.63636363636364" y="22.816666666666663" width="2" height="77.18333333333334" id="pos-rate-32"></rect></g><g><rect x="80" y="53.66111111111111" width="2" height="46.33888888888889" id="pos-rate-33"></rect></g><g><rect x="76.36363636363637" y="53.333333333333336" width="2" height="46.666666666666664" id="pos-rate-34"></rect></g><g><rect x="72.72727272727273" y="39.02777777777777" width="2" height="60.97222222222223" id="pos-rate-35"></rect></g><g><rect x="69.0909090909091" y="35.32777777777778" width="2" height="64.67222222222222" id="pos-rate-36"></rect></g><g><rect x="65.45454545454545" y="34.82222222222222" width="2" height="65.17777777777778" id="pos-rate-37"></rect></g><g><rect x="61.81818181818181" y="38.10555555555556" width="2" height="61.89444444444444" id="pos-rate-38"></rect></g><g><rect x="58.18181818181818" y="35.422222222222224" width="2" height="64.57777777777778" id="pos-rate-39"></rect></g><g><rect x="54.54545454545454" y="64.72222222222221" width="2" height="35.277777777777786" id="pos-rate-40"></rect></g><g><rect x="50.90909090909091" y="62.84444444444445" width="2" height="37.15555555555555" id="pos-rate-41"></rect></g><g><rect x="47.272727272727266" y="55.48888888888889" width="2" height="44.51111111111111" id="pos-rate-42"></rect></g><g><rect x="43.636363636363626" y="54.20555555555555" width="2" height="45.79444444444445" id="pos-rate-43"></rect></g><g><rect x="39.99999999999999" y="51.66111111111111" width="2" height="48.33888888888889" id="pos-rate-44"></rect></g><g><rect x="36.36363636363635" y="54.07777777777778" width="2" height="45.92222222222222" id="pos-rate-45"></rect></g><g><rect x="32.72727272727274" y="53.861111111111114" width="2" height="46.138888888888886" id="pos-rate-46"></rect></g><g><rect x="29.0909090909091" y="73.72222222222223" width="2" height="26.27777777777777" id="pos-rate-47"></rect></g><g><rect x="25.454545454545464" y="74.38333333333334" width="2" height="25.61666666666666" id="pos-rate-48"></rect></g><g><rect x="21.818181818181827" y="67.15555555555555" width="2" height="32.84444444444445" id="pos-rate-49"></rect></g><g><rect x="18.181818181818187" y="67.72777777777777" width="2" height="32.272222222222226" id="pos-rate-50"></rect></g><g><rect x="14.54545454545455" y="69.38333333333333" width="2" height="30.616666666666674" id="pos-rate-51"></rect></g><g><rect x="10.909090909090914" y="70.37222222222222" width="2" height="29.62777777777778" id="pos-rate-52"></rect></g><g><rect x="7.272727272727275" y="70.46111111111111" width="2" height="29.53888888888889" id="pos-rate-53"></rect></g><g><rect x="3.6363636363636376" y="82.78333333333333" width="2" height="17.21666666666667" id="pos-rate-54"></rect></g><g><rect x="0" y="82.7388888888889" width="2" height="17.261111111111106" id="pos-rate-55"></rect></g></g><g class="fg-line pos-rate"><path d="M200,46.43174603174604L196.36363636363637,44.62619047619047L192.72727272727272,42.89126984126984L189.0909090909091,41.553174603174604L185.45454545454544,39.87777777777778L181.8181818181818,37.901587301587305L178.1818181818182,36.884126984126986L174.54545454545456,35.76746031746032L170.9090909090909,33.884126984126986L167.27272727272728,32.58730158730159L163.63636363636363,31.301587301587297L160,30.081746031746036L156.36363636363637,29.43015873015873L152.72727272727275,28.856349206349208L149.0909090909091,28.27063492063492L145.45454545454547,27.91190476190476L141.8181818181818,27.296825396825398L138.1818181818182,26.942063492063497L134.54545454545453,26.3452380952381L130.9090909090909,26.169841269841278L127.27272727272727,25.791269841269838L123.63636363636363,25.742063492063494L120,26.475396825396835L116.36363636363636,27.137301587301586L112.72727272727275,28.243650793650797L109.09090909090908,29.65L105.45454545454547,31.375396825396827L101.81818181818181,31.50317460317461L98.18181818181819,32.39920634920635L94.54545454545456,33.792857142857144L90.90909090909092,35.41111111111112L87.27272727272728,37.144444444444446L83.63636363636364,39.58492063492063L80,41.38571428571428L76.36363636363637,42.965873015873015L72.72727272727273,44.32460317460317L69.0909090909091,46.676190476190484L65.45454545454545,49.373015873015866L61.81818181818181,51.77857142857143L58.18181818181818,54.060317460317464L54.54545454545454,56.69444444444445L50.90909090909091,57.980158730158735L47.272727272727266,59.62857142857143L43.636363636363626,61.29523809523809L39.99999999999999,63.226984126984135L36.36363636363635,65.75873015873015L32.72727272727274,68.08650793650793L29.0909090909091,70.45793650793651L25.454545454545464,71.75238095238095L21.818181818181827,72.94603174603175L18.181818181818187,74.8L14.54545454545455,76.58968253968254L10.909090909090914,78L7.272727272727275,79.39603174603175L3.6363636363636376,81.44285714285714L0,82.68095238095238"></path></g></svg>