<svg viewBox="0,0,200,100"><g transform="translate(0,0)"></g><g class="fg-bars pos-rate"><g><rect x="200" y="51.99384615384615" width="2" height="48.00615384615385" id="pos-rate-0"></rect></g><g><rect x="196.36363636363637" y="12.304615384615381" width="2" height="87.69538461538463" id="pos-rate-1"></rect></g><g><rect x="192.72727272727272" y="29.963846153846152" width="2" height="70.03615384615385" id="pos-rate-2"></rect></g><g><rect x="189.0909090909091" y="27.97692307692308" width="2" height="72.02307692307693" id="pos-rate-3"></rect></g><g><rect x="185.45454545454544" y="25.35538461538461" width="2" height="74.64461538461539" id="pos-rate-4"></rect></g><g><rect x="181.8181818181818" y="24.493076923076927" width="2" height="75.50692307692307" id="pos-rate-5"></rect></g><g><rect x="178.1818181818182" y="67.72846153846153" width="2" height="32.27153846153847" id="pos-rate-6"></rect></g><g><rect x="174.54545454545456" y="41.62692307692307" width="2" height="58.37307692307693" id="pos-rate-7"></rect></g><g><rect x="170.9090909090909" y="3.9269230769230723" width="2" height="96.07307692307693" id="pos-rate-8"></rect></g><g><rect x="167.27272727272728" y="21.646923076923073" width="2" height="78.35307692307693" id="pos-rate-9"></rect></g><g><rect x="163.63636363636363" y="22.51461538461539" width="2" height="77.48538461538462" id="pos-rate-10"></rect></g><g><rect x="160" y="19.48384615384615" width="2" height="80.51615384615386" id="pos-rate-11"></rect></g><g><rect x="156.36363636363637" y="19.768461538461533" width="2" height="80.23153846153846" id="pos-rate-12"></rect></g><g><rect x="152.72727272727275" y="68.11692307692307" width="2" height="31.883076923076928" id="pos-rate-13"></rect></g><g><rect x="149.0909090909091" y="42.716923076923074" width="2" height="57.283076923076926" id="pos-rate-14"></rect></g><g><rect x="145.45454545454547" y="4.435384615384619" width="2" height="95.56461538461538" id="pos-rate-15"></rect></g><g><rect x="141.8181818181818" y="22.90923076923077" width="2" height="77.09076923076923" id="pos-rate-16"></rect></g><g><rect x="138.1818181818182" y="22.608461538461544" width="2" height="77.39153846153846" id="pos-rate-17"></rect></g><g><rect x="134.54545454545453" y="22.551538461538456" width="2" height="77.44846153846154" id="pos-rate-18"></rect></g><g><rect x="130.9090909090909" y="26.273846153846158" width="2" height="73.72615384615384" id="pos-rate-19"></rect></g><g><rect x="127.27272727272727" y="71.11692307692307" width="2" height="28.883076923076928" id="pos-rate-20"></rect></g><g><rect x="123.63636363636363" y="44.565384615384616" width="2" height="55.434615384615384" id="pos-rate-21"></rect></g><g><rect x="120" y="15.309230769230764" width="2" height="84.69076923076923" id="pos-rate-22"></rect></g><g><rect x="116.36363636363636" y="32.676153846153845" width="2" height="67.32384615384615" id="pos-rate-23"></rect></g><g><rect x="112.72727272727275" y="37.57692307692307" width="2" height="62.42307692307693" id="pos-rate-24"></rect></g><g><rect x="109.09090909090908" y="30.511538461538457" width="2" height="69.48846153846154" id="pos-rate-25"></rect></g><g><rect x="105.45454545454547" y="33.071538461538466" width="2" height="66.92846153846153" id="pos-rate-26"></rect></g><g><rect x="101.81818181818181" y="73.26923076923077" width="2" height="26.730769230769226" id="pos-rate-27"></rect></g><g><rect x="98.18181818181819" y="51.18846153846154" width="2" height="48.81153846153846" id="pos-rate-28"></rect></g><g><rect x="94.54545454545456" y="20.141538461538467" width="2" height="79.85846153846154" id="pos-rate-29"></rect></g><g><rect x="90.90909090909092" y="34.190769230769234" width="2" height="65.80923076923077" id="pos-rate-30"></rect></g><g><rect x="87.27272727272728" y="35.673846153846156" width="2" height="64.32615384615384" id="pos-rate-31"></rect></g><g><rect x="83.63636363636364" y="31.70384615384615" width="2" height="68.29615384615386" id="pos-rate-32"></rect></g><g><rect x="80" y="38.930769230769236" width="2" height="61.069230769230764" id="pos-rate-33"></rect></g><g><rect x="76.36363636363637" y="77.04230769230769" width="2" height="22.957692307692312" id="pos-rate-34"></rect></g><g><rect x="72.72727272727273" y="54.20230769230769" width="2" height="45.79769230769231" id="pos-rate-35"></rect></g><g><rect x="69.0909090909091" y="26.170000000000005" width="2" height="73.83" id="pos-rate-36"></rect></g><g><rect x="65.45454545454545" y="37.54538461538461" width="2" height="62.45461538461539" id="pos-rate-37"></rect></g><g><rect x="61.81818181818181" y="35.55615384615385" width="2" height="64.44384615384615" id="pos-rate-38"></rect></g><g><rect x="58.18181818181818" y="34.8" width="2" height="65.2" id="pos-rate-39"></rect></g><g><rect x="54.54545454545454" y="44.78846153846155" width="2" height="55.21153846153845" id="pos-rate-40"></rect></g><g><rect x="50.90909090909091" y="80.31384615384616" width="2" height="19.686153846153843" id="pos-rate-41"></rect></g><g><rect x="47.272727272727266" y="56.92923076923078" width="2" height="43.07076923076922" id="pos-rate-42"></rect></g><g><rect x="43.636363636363626" y="29.57153846153846" width="2" height="70.42846153846153" id="pos-rate-43"></rect></g><g><rect x="39.99999999999999" y="40.49846153846154" width="2" height="59.50153846153846" id="pos-rate-44"></rect></g><g><rect x="36.36363636363635" y="40.74076923076924" width="2" height="59.25923076923076" id="pos-rate-45"></rect></g><g><rect x="32.72727272727274" y="39.16846153846154" width="2" height="60.83153846153846" id="pos-rate-46"></rect></g><g><rect x="29.0909090909091" y="46.74307692307692" width="2" height="53.25692307692308" id="pos-rate-47"></rect></g><g><rect x="25.454545454545464" y="79.63076923076923" width="2" height="20.369230769230768" id="pos-rate-48"></rect></g><g><rect x="21.818181818181827" y="57.424615384615386" width="2" height="42.575384615384614" id="pos-rate-49"></rect></g><g><rect x="18.181818181818187" y="34.42076923076923" width="2" height="65.57923076923078" id="pos-rate-50"></rect></g><g><rect x="14.54545454545455" y="45.87307692307693" width="2" height="54.12692307692307" id="pos-rate-51"></rect></g><g><rect x="10.909090909090914" y="46.45153846153847" width="2" height="53.54846153846153" id="pos-rate-52"></rect></g><g><rect x="7.272727272727275" y="44.32923076923076" width="2" height="55.67076923076924" id="pos-rate-53"></rect></g><g><rect x="3.6363636363636376" y="47.60076923076924" width="2" height="52.39923076923076" id="pos-rate-54"></rect></g><g><rect x="0" y="81.28384615384616" width="2" height="18.716153846153844" id="pos-rate-55"></rect></g></g><g class="fg-line pos-rate"><path d="M200,34.25945054945054L196.36363636363637,32.778461538461535L192.72727272727272,31.58164835164835L189.0909090909091,30.393516483516493L185.45454545454544,29.613186813186807L181.8181818181818,28.774395604395608L178.1818181818182,28.099450549450545L174.54545454545456,28.154945054945046L170.9090909090909,28.31065934065934L167.27272727272728,28.3832967032967L163.63636363636363,28.56362637362637L160,28.577032967032967L156.36363636363637,29.015274725274733L152.72727272727275,29.944615384615382L149.0909090909091,30.373186813186813L145.45454545454547,30.63725274725274L141.8181818181818,32.190659340659344L138.1818181818182,33.58593406593406L134.54545454545453,35.72428571428572L130.9090909090909,36.861428571428576L127.27272727272727,37.83252747252747L123.63636363636363,38.13999999999999L120,39.08615384615385L116.36363636363636,39.77648351648351L112.72727272727275,39.99285714285714L109.09090909090908,39.72098901098901L105.45454545454547,39.89131868131869L101.81818181818181,40.72835164835165L98.18181818181819,41.26736263736264L94.54545454545456,41.69791208791208L90.90909090909092,42.55912087912088L87.27272727272728,43.03835164835165L83.63636363636364,43.02153846153847L80,43.463846153846156L76.36363636363637,44.300659340659344L72.72727272727273,44.76802197802198L69.0909090909091,45.15758241758242L65.45454545454545,45.643516483516485L61.81818181818181,46.065384615384616L58.18181818181818,46.80604395604395L54.54545454545454,47.43010989010988L50.90909090909091,47.70934065934066L47.272727272727266,47.61175824175824L43.636363636363626,47.68252747252747L39.99999999999999,48.37527472527473L36.36363636363635,49.143076923076926L32.72727272727274,49.9589010989011L29.0909090909091,50.69615384615385L25.454545454545464,50.81868131868133L21.818181818181827,51.05483516483517L18.181818181818187,51.22472527472528L14.54545454545455,51.1921978021978L10.909090909090914,50.87593406593407L7.272727272727275,50.10296703296704L3.6363636363636376,48.15912087912088L0,50.959780219780214"></path></g></svg>