<svg viewBox="0,0,200,100"><g transform="translate(0,0)"></g><g class="fg-bars pos-rate"><g><rect x="200" y="12.436153846153841" width="2" height="87.56384615384616" id="pos-rate-0"></rect></g><g><rect x="196.36363636363637" y="29.982307692307696" width="2" height="70.0176923076923" id="pos-rate-1"></rect></g><g><rect x="192.72727272727272" y="28.080000000000005" width="2" height="71.91999999999999" id="pos-rate-2"></rect></g><g><rect x="189.0909090909091" y="25.398461538461536" width="2" height="74.60153846153847" id="pos-rate-3"></rect></g><g><rect x="185.45454545454544" y="24.530769230769234" width="2" height="75.46923076923076" id="pos-rate-4"></rect></g><g><rect x="181.8181818181818" y="67.73230769230769" width="2" height="32.267692307692315" id="pos-rate-5"></rect></g><g><rect x="178.1818181818182" y="41.71" width="2" height="58.29" id="pos-rate-6"></rect></g><g><rect x="174.54545454545456" y="3.9900000000000047" width="2" height="96.00999999999999" id="pos-rate-7"></rect></g><g><rect x="170.9090909090909" y="21.773846153846154" width="2" height="78.22615384615385" id="pos-rate-8"></rect></g><g><rect x="167.27272727272728" y="22.57" width="2" height="77.43" id="pos-rate-9"></rect></g><g><rect x="163.63636363636363" y="19.520000000000003" width="2" height="80.47999999999999" id="pos-rate-10"></rect></g><g><rect x="160" y="19.822307692307696" width="2" height="80.1776923076923" id="pos-rate-11"></rect></g><g><rect x="156.36363636363637" y="68.13307692307693" width="2" height="31.866923076923072" id="pos-rate-12"></rect></g><g><rect x="152.72727272727275" y="42.87615384615384" width="2" height="57.12384615384616" id="pos-rate-13"></rect></g><g><rect x="149.0909090909091" y="4.469230769230769" width="2" height="95.53076923076924" id="pos-rate-14"></rect></g><g><rect x="145.45454545454547" y="22.938461538461542" width="2" height="77.06153846153846" id="pos-rate-15"></rect></g><g><rect x="141.8181818181818" y="22.63846153846154" width="2" height="77.36153846153846" id="pos-rate-16"></rect></g><g><rect x="138.1818181818182" y="22.572307692307692" width="2" height="77.42769230769231" id="pos-rate-17"></rect></g><g><rect x="134.54545454545453" y="26.291538461538465" width="2" height="73.70846153846153" id="pos-rate-18"></rect></g><g><rect x="130.9090909090909" y="71.11846153846153" width="2" height="28.88153846153847" id="pos-rate-19"></rect></g><g><rect x="127.27272727272727" y="44.644615384615385" width="2" height="55.355384615384615" id="pos-rate-20"></rect></g><g><rect x="123.63636363636363" y="15.409230769230764" width="2" height="84.59076923076924" id="pos-rate-21"></rect></g><g><rect x="120" y="32.70076923076923" width="2" height="67.29923076923077" id="pos-rate-22"></rect></g><g><rect x="116.36363636363636" y="37.629999999999995" width="2" height="62.370000000000005" id="pos-rate-23"></rect></g><g><rect x="112.72727272727275" y="30.536923076923074" width="2" height="69.46307692307693" id="pos-rate-24"></rect></g><g><rect x="109.09090909090908" y="33.10692307692308" width="2" height="66.89307692307692" id="pos-rate-25"></rect></g><g><rect x="105.45454545454547" y="73.27076923076923" width="2" height="26.729230769230767" id="pos-rate-26"></rect></g><g><rect x="101.81818181818181" y="51.19230769230769" width="2" height="48.80769230769231" id="pos-rate-27"></rect></g><g><rect x="98.18181818181819" y="20.14769230769231" width="2" height="79.85230769230769" id="pos-rate-28"></rect></g><g><rect x="94.54545454545456" y="34.192307692307686" width="2" height="65.80769230769232" id="pos-rate-29"></rect></g><g><rect x="90.90909090909092" y="35.676923076923075" width="2" height="64.32307692307693" id="pos-rate-30"></rect></g><g><rect x="87.27272727272728" y="31.706923076923076" width="2" height="68.29307692307692" id="pos-rate-31"></rect></g><g><rect x="83.63636363636364" y="38.93538461538461" width="2" height="61.06461538461539" id="pos-rate-32"></rect></g><g><rect x="80" y="77.04461538461538" width="2" height="22.955384615384617" id="pos-rate-33"></rect></g><g><rect x="76.36363636363637" y="54.20461538461539" width="2" height="45.79538461538461" id="pos-rate-34"></rect></g><g><rect x="72.72727272727273" y="26.171538461538457" width="2" height="73.82846153846154" id="pos-rate-35"></rect></g><g><rect x="69.0909090909091" y="37.54923076923077" width="2" height="62.45076923076923" id="pos-rate-36"></rect></g><g><rect x="65.45454545454545" y="35.56307692307692" width="2" height="64.43692307692308" id="pos-rate-37"></rect></g><g><rect x="61.81818181818181" y="34.80153846153846" width="2" height="65.19846153846154" id="pos-rate-38"></rect></g><g><rect x="58.18181818181818" y="44.78692307692308" width="2" height="55.21307692307692" id="pos-rate-39"></rect></g><g><rect x="54.54545454545454" y="80.31384615384616" width="2" height="19.686153846153843" id="pos-rate-40"></rect></g><g><rect x="50.90909090909091" y="56.92999999999999" width="2" height="43.07000000000001" id="pos-rate-41"></rect></g><g><rect x="47.272727272727266" y="29.573076923076925" width="2" height="70.42692307692307" id="pos-rate-42"></rect></g><g><rect x="43.636363636363626" y="40.501538461538466" width="2" height="59.498461538461534" id="pos-rate-43"></rect></g><g><rect x="39.99999999999999" y="40.745384615384616" width="2" height="59.254615384615384" id="pos-rate-44"></rect></g><g><rect x="36.36363636363635" y="39.17153846153846" width="2" height="60.82846153846154" id="pos-rate-45"></rect></g><g><rect x="32.72727272727274" y="46.746923076923075" width="2" height="53.253076923076925" id="pos-rate-46"></rect></g><g><rect x="29.0909090909091" y="79.63230769230769" width="2" height="20.36769230769231" id="pos-rate-47"></rect></g><g><rect x="25.454545454545464" y="57.42615384615384" width="2" height="42.57384615384616" id="pos-rate-48"></rect></g><g><rect x="21.818181818181827" y="34.42846153846154" width="2" height="65.57153846153847" id="pos-rate-49"></rect></g><g><rect x="18.181818181818187" y="45.87538461538462" width="2" height="54.12461538461538" id="pos-rate-50"></rect></g><g><rect x="14.54545454545455" y="46.455384615384624" width="2" height="53.544615384615376" id="pos-rate-51"></rect></g><g><rect x="10.909090909090914" y="44.333076923076916" width="2" height="55.666923076923084" id="pos-rate-52"></rect></g><g><rect x="7.272727272727275" y="47.60307692307693" width="2" height="52.39692307692307" id="pos-rate-53"></rect></g><g><rect x="3.6363636363636376" y="81.28538461538461" width="2" height="18.714615384615385" id="pos-rate-54"></rect></g><g><rect x="0" y="58.61538461538461" width="2" height="41.38461538461539" id="pos-rate-55"></rect></g></g><g class="fg-line pos-rate"><path d="M200,32.83857142857143L196.36363636363637,31.631978021978025L192.72727272727272,30.45934065934066L189.0909090909091,29.672197802197807L185.45454545454544,28.83241758241758L181.8181818181818,28.159780219780227L178.1818181818182,28.217032967032964L174.54545454545456,28.38362637362638L170.9090909090909,28.45208791208792L167.27272727272728,28.61846153846154L163.63636363636363,28.628241758241757L160,29.06428571428572L156.36363636363637,29.988461538461543L152.72727272727275,30.414945054945054L149.0909090909091,30.667582417582416L145.45454545454547,32.230439560439564L141.8181818181818,33.625054945054956L138.1818181818182,35.7667032967033L134.54545454545453,36.90450549450549L130.9090909090909,37.878131868131874L127.27272727272727,38.185604395604386L123.63636363636363,39.12098901098901L120,39.79791208791208L116.36363636363636,40.01098901098901L112.72727272727275,39.73197802197803L109.09090909090908,39.899120879120886L105.45454545454547,40.73175824175824L101.81818181818181,41.27087912087912L98.18181818181819,41.7012087912088L94.54545454545456,42.56175824175824L90.90909090909092,43.041318681318685L87.27272727272728,43.025054945054954L83.63636363636364,43.467142857142846L80,44.30307692307692L76.36363636363637,44.770109890109886L72.72727272727273,45.15945054945054L69.0909090909091,45.64538461538461L65.45454545454545,46.06714285714285L61.81818181818181,46.80747252747253L58.18181818181818,47.43175824175824L54.54545454545454,47.71175824175824L50.90909090909091,47.61439560439561L47.272727272727266,47.68527472527473L43.636363636363626,48.3789010989011L39.99999999999999,49.14659340659341L36.36363636363635,49.9623076923077L32.72727272727274,50.69967032967033L29.0909090909091,50.82197802197802L25.454545454545464,51.05813186813186L21.818181818181827,51.228021978021985L18.181818181818187,51.19483516483516L14.54545454545455,50.878681318681316L10.909090909090914,50.105274725274725L7.272727272727275,48.16142857142858L3.6363636363636376,50.96175824175824L0,53.23505494505494"></path></g></svg>