<svg viewBox="0,0,200,100"><g transform="translate(0,0)"></g><g class="fg-bars pos-rate"><g><rect x="200" y="30.082307692307698" width="2" height="69.9176923076923" id="pos-rate-0"></rect></g><g><rect x="196.36363636363637" y="28.155384615384616" width="2" height="71.84461538461538" id="pos-rate-1"></rect></g><g><rect x="192.72727272727272" y="25.449999999999996" width="2" height="74.55000000000001" id="pos-rate-2"></rect></g><g><rect x="189.0909090909091" y="24.625384615384615" width="2" height="75.37461538461538" id="pos-rate-3"></rect></g><g><rect x="185.45454545454544" y="67.73076923076924" width="2" height="32.26923076923076" id="pos-rate-4"></rect></g><g><rect x="181.8181818181818" y="41.760769230769235" width="2" height="58.239230769230765" id="pos-rate-5"></rect></g><g><rect x="178.1818181818182" y="4.202307692307694" width="2" height="95.7976923076923" id="pos-rate-6"></rect></g><g><rect x="174.54545454545456" y="21.888461538461534" width="2" height="78.11153846153846" id="pos-rate-7"></rect></g><g><rect x="170.9090909090909" y="22.86846153846154" width="2" height="77.13153846153847" id="pos-rate-8"></rect></g><g><rect x="167.27272727272728" y="19.65538461538462" width="2" height="80.34461538461538" id="pos-rate-9"></rect></g><g><rect x="163.63636363636363" y="20.073076923076925" width="2" height="79.92692307692307" id="pos-rate-10"></rect></g><g><rect x="160" y="68.18153846153847" width="2" height="31.818461538461534" id="pos-rate-11"></rect></g><g><rect x="156.36363636363637" y="42.97692307692308" width="2" height="57.02307692307692" id="pos-rate-12"></rect></g><g><rect x="152.72727272727275" y="4.690769230769232" width="2" height="95.30923076923077" id="pos-rate-13"></rect></g><g><rect x="149.0909090909091" y="23.242307692307694" width="2" height="76.75769230769231" id="pos-rate-14"></rect></g><g><rect x="145.45454545454547" y="22.91230769230769" width="2" height="77.08769230769231" id="pos-rate-15"></rect></g><g><rect x="141.8181818181818" y="22.713076923076926" width="2" height="77.28692307692307" id="pos-rate-16"></rect></g><g><rect x="138.1818181818182" y="26.490769230769228" width="2" height="73.50923076923077" id="pos-rate-17"></rect></g><g><rect x="134.54545454545453" y="71.27923076923078" width="2" height="28.72076923076922" id="pos-rate-18"></rect></g><g><rect x="130.9090909090909" y="44.699230769230766" width="2" height="55.300769230769234" id="pos-rate-19"></rect></g><g><rect x="127.27272727272727" y="15.636923076923082" width="2" height="84.36307692307692" id="pos-rate-20"></rect></g><g><rect x="123.63636363636363" y="32.744615384615386" width="2" height="67.25538461538461" id="pos-rate-21"></rect></g><g><rect x="120" y="37.767692307692315" width="2" height="62.232307692307685" id="pos-rate-22"></rect></g><g><rect x="116.36363636363636" y="30.85692307692308" width="2" height="69.14307692307692" id="pos-rate-23"></rect></g><g><rect x="112.72727272727275" y="33.20538461538462" width="2" height="66.79461538461538" id="pos-rate-24"></rect></g><g><rect x="109.09090909090908" y="73.28" width="2" height="26.72" id="pos-rate-25"></rect></g><g><rect x="105.45454545454547" y="51.37615384615384" width="2" height="48.62384615384616" id="pos-rate-26"></rect></g><g><rect x="101.81818181818181" y="20.335384615384612" width="2" height="79.66461538461539" id="pos-rate-27"></rect></g><g><rect x="98.18181818181819" y="34.30384615384615" width="2" height="65.69615384615385" id="pos-rate-28"></rect></g><g><rect x="94.54545454545456" y="35.79461538461538" width="2" height="64.20538461538462" id="pos-rate-29"></rect></g><g><rect x="90.90909090909092" y="31.736923076923073" width="2" height="68.26307692307692" id="pos-rate-30"></rect></g><g><rect x="87.27272727272728" y="39.03153846153846" width="2" height="60.96846153846154" id="pos-rate-31"></rect></g><g><rect x="83.63636363636364" y="77.1123076923077" width="2" height="22.887692307692305" id="pos-rate-32"></rect></g><g><rect x="80" y="54.24692307692307" width="2" height="45.75307692307693" id="pos-rate-33"></rect></g><g><rect x="76.36363636363637" y="26.20538461538462" width="2" height="73.79461538461538" id="pos-rate-34"></rect></g><g><rect x="72.72727272727273" y="37.56615384615385" width="2" height="62.43384615384615" id="pos-rate-35"></rect></g><g><rect x="69.0909090909091" y="35.58692307692307" width="2" height="64.41307692307693" id="pos-rate-36"></rect></g><g><rect x="65.45454545454545" y="34.81846153846154" width="2" height="65.18153846153845" id="pos-rate-37"></rect></g><g><rect x="61.81818181818181" y="44.8" width="2" height="55.2" id="pos-rate-38"></rect></g><g><rect x="58.18181818181818" y="80.29846153846154" width="2" height="19.701538461538462" id="pos-rate-39"></rect></g><g><rect x="54.54545454545454" y="56.94461538461538" width="2" height="43.05538461538462" id="pos-rate-40"></rect></g><g><rect x="50.90909090909091" y="29.584615384615386" width="2" height="70.41538461538461" id="pos-rate-41"></rect></g><g><rect x="47.272727272727266" y="40.504615384615384" width="2" height="59.495384615384616" id="pos-rate-42"></rect></g><g><rect x="43.636363636363626" y="40.75" width="2" height="59.25" id="pos-rate-43"></rect></g><g><rect x="39.99999999999999" y="39.17153846153846" width="2" height="60.82846153846154" id="pos-rate-44"></rect></g><g><rect x="36.36363636363635" y="46.74538461538461" width="2" height="53.25461538461539" id="pos-rate-45"></rect></g><g><rect x="32.72727272727274" y="79.63" width="2" height="20.370000000000005" id="pos-rate-46"></rect></g><g><rect x="29.0909090909091" y="57.43000000000001" width="2" height="42.56999999999999" id="pos-rate-47"></rect></g><g><rect x="25.454545454545464" y="34.44076923076923" width="2" height="65.55923076923077" id="pos-rate-48"></rect></g><g><rect x="21.818181818181827" y="45.91384615384615" width="2" height="54.08615384615385" id="pos-rate-49"></rect></g><g><rect x="18.181818181818187" y="46.48230769230769" width="2" height="53.51769230769231" id="pos-rate-50"></rect></g><g><rect x="14.54545454545455" y="44.34538461538462" width="2" height="55.65461538461538" id="pos-rate-51"></rect></g><g><rect x="10.909090909090914" y="47.62769230769231" width="2" height="52.37230769230769" id="pos-rate-52"></rect></g><g><rect x="7.272727272727275" y="81.28692307692307" width="2" height="18.713076923076926" id="pos-rate-53"></rect></g><g><rect x="3.6363636363636376" y="58.63461538461539" width="2" height="41.36538461538461" id="pos-rate-54"></rect></g><g><rect x="0" y="34.20307692307693" width="2" height="65.79692307692306" id="pos-rate-55"></rect></g></g><g class="fg-line pos-rate"><path d="M200,31.71527472527472L196.36363636363637,30.54472527472527L192.72727272727272,29.789450549450546L189.0909090909091,28.96164835164835L185.45454545454544,28.31131868131869L181.8181818181818,28.37571428571428L178.1818181818182,28.54945054945055L174.54545454545456,28.619230769230775L170.9090909090909,28.81263736263736L167.27272727272728,28.818901098901108L163.63636363636363,29.255714285714284L160,30.172527472527467L156.36363636363637,30.615054945054954L152.72727272727275,30.86109890109889L149.0909090909091,32.424835164835166L145.45454545454547,33.78230769230769L141.8181818181818,35.9045054945055L138.1818181818182,37.06791208791208L134.54545454545453,38.02714285714286L130.9090909090909,38.31296703296704L127.27272727272727,39.26681318681319L123.63636363636363,39.93802197802198L120,40.16076923076923L116.36363636363636,39.878901098901096L112.72727272727275,40.004615384615384L109.09090909090908,40.836923076923085L105.45454545454547,41.38439560439561L101.81818181818181,41.79450549450549L98.18181818181819,42.63307692307692L94.54545454545456,43.099120879120875L90.90909090909092,43.06945054945055L87.27272727272728,43.509670329670335L83.63636363636364,44.33373626373627L80,44.7889010989011L76.36363636363637,45.17428571428572L72.72727272727273,45.65703296703296L69.0909090909091,46.07681318681319L65.45454545454545,46.81439560439561L61.81818181818181,47.43626373626374L58.18181818181818,47.71417582417582L54.54545454545454,47.61868131868131L50.90909090909091,47.68802197802198L47.272727272727266,48.38175824175824L43.636363636363626,49.15450549450549L39.99999999999999,49.9734065934066L36.36363636363635,50.71252747252748L32.72727272727274,50.83857142857142L29.0909090909091,51.07527472527473L25.454545454545464,51.247362637362635L21.818181818181827,51.213406593406596L18.181818181818187,50.8932967032967L14.54545454545455,50.11802197802198L10.909090909090914,48.17373626373627L7.272727272727275,50.97120879120879L3.6363636363636376,53.2445054945055L0,53.838681318681324"></path></g></svg>