<svg viewBox="0,0,200,100"><g transform="translate(0,0)"></g><g class="fg-bars pos-rate"><g><rect x="200" y="69.18333333333334" width="2" height="30.816666666666663" id="pos-rate-0"></rect></g><g><rect x="196.36363636363637" y="51.90555555555556" width="2" height="48.09444444444444" id="pos-rate-1"></rect></g><g><rect x="192.72727272727272" y="44.52777777777778" width="2" height="55.47222222222222" id="pos-rate-2"></rect></g><g><rect x="189.0909090909091" y="35.25" width="2" height="64.75" id="pos-rate-3"></rect></g><g><rect x="185.45454545454544" y="35.37777777777777" width="2" height="64.62222222222223" id="pos-rate-4"></rect></g><g><rect x="181.8181818181818" y="30.01111111111111" width="2" height="69.9888888888889" id="pos-rate-5"></rect></g><g><rect x="178.1818181818182" y="66.17777777777778" width="2" height="33.82222222222222" id="pos-rate-6"></rect></g><g><rect x="174.54545454545456" y="58.90555555555556" width="2" height="41.09444444444444" id="pos-rate-7"></rect></g><g><rect x="170.9090909090909" y="39.449999999999996" width="2" height="60.550000000000004" id="pos-rate-8"></rect></g><g><rect x="167.27272727272728" y="32.644444444444446" width="2" height="67.35555555555555" id="pos-rate-9"></rect></g><g><rect x="163.63636363636363" y="26.30555555555556" width="2" height="73.69444444444444" id="pos-rate-10"></rect></g><g><rect x="160" y="23.872222222222216" width="2" height="76.12777777777778" id="pos-rate-11"></rect></g><g><rect x="156.36363636363637" y="16.40555555555555" width="2" height="83.59444444444445" id="pos-rate-12"></rect></g><g><rect x="152.72727272727275" y="59.42777777777778" width="2" height="40.57222222222222" id="pos-rate-13"></rect></g><g><rect x="149.0909090909091" y="51.44444444444445" width="2" height="48.55555555555555" id="pos-rate-14"></rect></g><g><rect x="145.45454545454547" y="26.811111111111106" width="2" height="73.1888888888889" id="pos-rate-15"></rect></g><g><rect x="141.8181818181818" y="23.733333333333327" width="2" height="76.26666666666668" id="pos-rate-16"></rect></g><g><rect x="138.1818181818182" y="17.47777777777778" width="2" height="82.52222222222221" id="pos-rate-17"></rect></g><g><rect x="134.54545454545453" y="15.400000000000002" width="2" height="84.6" id="pos-rate-18"></rect></g><g><rect x="130.9090909090909" y="12.094444444444441" width="2" height="87.90555555555557" id="pos-rate-19"></rect></g><g><rect x="127.27272727272727" y="55.49444444444445" width="2" height="44.50555555555555" id="pos-rate-20"></rect></g><g><rect x="123.63636363636363" y="47.37777777777777" width="2" height="52.62222222222223" id="pos-rate-21"></rect></g><g><rect x="120" y="24.177777777777777" width="2" height="75.82222222222222" id="pos-rate-22"></rect></g><g><rect x="116.36363636363636" y="19.372222222222224" width="2" height="80.62777777777778" id="pos-rate-23"></rect></g><g><rect x="112.72727272727275" y="14.927777777777774" width="2" height="85.07222222222222" id="pos-rate-24"></rect></g><g><rect x="109.09090909090908" y="11.161111111111111" width="2" height="88.83888888888889" id="pos-rate-25"></rect></g><g><rect x="105.45454545454547" y="10.733333333333327" width="2" height="89.26666666666668" id="pos-rate-26"></rect></g><g><rect x="101.81818181818181" y="52.75555555555555" width="2" height="47.24444444444445" id="pos-rate-27"></rect></g><g><rect x="98.18181818181819" y="47.050000000000004" width="2" height="52.949999999999996" id="pos-rate-28"></rect></g><g><rect x="94.54545454545456" y="29.24444444444444" width="2" height="70.75555555555556" id="pos-rate-29"></rect></g><g><rect x="90.90909090909092" y="23.972222222222218" width="2" height="76.02777777777779" id="pos-rate-30"></rect></g><g><rect x="87.27272727272728" y="22.68888888888889" width="2" height="77.3111111111111" id="pos-rate-31"></rect></g><g><rect x="83.63636363636364" y="21.038888888888884" width="2" height="78.96111111111111" id="pos-rate-32"></rect></g><g><rect x="80" y="22.816666666666663" width="2" height="77.18333333333334" id="pos-rate-33"></rect></g><g><rect x="76.36363636363637" y="53.64444444444445" width="2" height="46.35555555555555" id="pos-rate-34"></rect></g><g><rect x="72.72727272727273" y="53.33888888888889" width="2" height="46.66111111111111" id="pos-rate-35"></rect></g><g><rect x="69.0909090909091" y="39.022222222222226" width="2" height="60.977777777777774" id="pos-rate-36"></rect></g><g><rect x="65.45454545454545" y="35.33888888888889" width="2" height="64.66111111111111" id="pos-rate-37"></rect></g><g><rect x="61.81818181818181" y="34.82222222222222" width="2" height="65.17777777777778" id="pos-rate-38"></rect></g><g><rect x="58.18181818181818" y="38.12222222222223" width="2" height="61.87777777777777" id="pos-rate-39"></rect></g><g><rect x="54.54545454545454" y="35.41111111111112" width="2" height="64.58888888888887" id="pos-rate-40"></rect></g><g><rect x="50.90909090909091" y="64.72222222222221" width="2" height="35.277777777777786" id="pos-rate-41"></rect></g><g><rect x="47.272727272727266" y="62.83333333333334" width="2" height="37.16666666666666" id="pos-rate-42"></rect></g><g><rect x="43.636363636363626" y="55.48888888888889" width="2" height="44.51111111111111" id="pos-rate-43"></rect></g><g><rect x="39.99999999999999" y="54.21666666666667" width="2" height="45.78333333333333" id="pos-rate-44"></rect></g><g><rect x="36.36363636363635" y="51.66666666666666" width="2" height="48.33333333333334" id="pos-rate-45"></rect></g><g><rect x="32.72727272727274" y="54.07222222222222" width="2" height="45.92777777777778" id="pos-rate-46"></rect></g><g><rect x="29.0909090909091" y="53.849999999999994" width="2" height="46.150000000000006" id="pos-rate-47"></rect></g><g><rect x="25.454545454545464" y="73.71111111111111" width="2" height="26.28888888888889" id="pos-rate-48"></rect></g><g><rect x="21.818181818181827" y="74.37777777777778" width="2" height="25.62222222222222" id="pos-rate-49"></rect></g><g><rect x="18.181818181818187" y="67.15555555555555" width="2" height="32.84444444444445" id="pos-rate-50"></rect></g><g><rect x="14.54545454545455" y="67.72222222222221" width="2" height="32.277777777777786" id="pos-rate-51"></rect></g><g><rect x="10.909090909090914" y="69.38333333333333" width="2" height="30.616666666666674" id="pos-rate-52"></rect></g><g><rect x="7.272727272727275" y="70.37222222222222" width="2" height="29.62777777777778" id="pos-rate-53"></rect></g><g><rect x="3.6363636363636376" y="70.46666666666667" width="2" height="29.53333333333333" id="pos-rate-54"></rect></g><g><rect x="0" y="82.77777777777777" width="2" height="17.22222222222223" id="pos-rate-55"></rect></g></g><g class="fg-line pos-rate"><path d="M200,47.49047619047618L196.36363636363637,46.02222222222222L192.72727272727272,44.24285714285715L189.0909090909091,42.54523809523809L185.45454545454544,41.26746031746031L181.8181818181818,39.62380952380952L178.1818181818182,37.68015873015873L174.54545454545456,36.715873015873015L170.9090909090909,35.650000000000006L167.27272727272728,33.84444444444444L163.63636363636363,32.57142857142858L160,31.31031746031746L156.36363636363637,30.100000000000005L152.72727272727275,29.48412698412698L149.0909090909091,28.922222222222228L145.45454545454547,28.341269841269835L141.8181818181818,27.96507936507937L138.1818181818182,27.342063492063495L134.54545454545453,26.977777777777778L130.9090909090909,26.37222222222222L127.27272727272727,26.177777777777777L123.63636363636363,25.78650793650794L120,25.73968253968254L116.36363636363636,26.463492063492055L112.72727272727275,27.120634920634924L109.09090909090908,28.229365079365078L105.45454545454547,29.640476190476186L101.81818181818181,31.366666666666664L98.18181818181819,31.493650793650797L94.54545454545456,32.39206349206349L90.90909090909092,33.78888888888889L87.27272727272728,35.412698412698404L83.63636363636364,37.14603174603174L80,39.58650793650794L76.36363636363637,41.38571428571428L72.72727272727273,42.96825396825397L69.0909090909091,44.32460317460317L65.45454545454545,46.67698412698413L61.81818181818181,49.37380952380952L58.18181818181818,51.78015873015873L54.54545454545454,54.058730158730164L50.90909090909091,56.69285714285714L47.272727272727266,57.976984126984135L43.636363636363626,59.626190476190466L39.99999999999999,61.29285714285715L36.36363636363635,63.22222222222222L32.72727272727274,65.7531746031746L29.0909090909091,68.08174603174604L25.454545454545464,70.45555555555556L21.818181818181827,71.75079365079364L18.181818181818187,72.9452380952381L14.54545454545455,74.8L10.909090909090914,76.59047619047618L7.272727272727275,78.00079365079365L3.6363636363636376,79.39682539682539L0,81.44365079365079"></path></g></svg>