<svg viewBox="0,0,200,100"><g transform="translate(0,0)"></g><g class="fg-bars pos-rate"><g><rect x="200" y="30.000000000000004" width="2" height="70" id="pos-rate-0"></rect></g><g><rect x="196.36363636363637" y="28.181818181818187" width="2" height="71.81818181818181" id="pos-rate-1"></rect></g><g><rect x="192.72727272727272" y="21.818181818181813" width="2" height="78.18181818181819" id="pos-rate-2"></rect></g><g><rect x="189.0909090909091" y="38.18181818181819" width="2" height="61.81818181818181" id="pos-rate-3"></rect></g><g><rect x="185.45454545454544" y="12.727272727272732" width="2" height="87.27272727272727" id="pos-rate-4"></rect></g><g><rect x="181.8181818181818" y="8.18181818181818" width="2" height="91.81818181818181" id="pos-rate-5"></rect></g><g><rect x="178.1818181818182" y="38.18181818181819" width="2" height="61.81818181818181" id="pos-rate-6"></rect></g><g><rect x="174.54545454545456" y="38.18181818181819" width="2" height="61.81818181818181" id="pos-rate-7"></rect></g><g><rect x="170.9090909090909" y="8.18181818181818" width="2" height="91.81818181818181" id="pos-rate-8"></rect></g><g><rect x="167.27272727272728" y="39.090909090909086" width="2" height="60.909090909090914" id="pos-rate-9"></rect></g><g><rect x="163.63636363636363" y="38.18181818181819" width="2" height="61.81818181818181" id="pos-rate-10"></rect></g><g><rect x="160" y="37.272727272727266" width="2" height="62.727272727272734" id="pos-rate-11"></rect></g><g><rect x="156.36363636363637" y="40" width="2" height="60" id="pos-rate-12"></rect></g><g><rect x="152.72727272727275" y="40" width="2" height="60" id="pos-rate-13"></rect></g><g><rect x="149.0909090909091" y="52.727272727272734" width="2" height="47.272727272727266" id="pos-rate-14"></rect></g><g><rect x="145.45454545454547" y="50.90909090909091" width="2" height="49.09090909090909" id="pos-rate-15"></rect></g><g><rect x="141.8181818181818" y="60.909090909090914" width="2" height="39.090909090909086" id="pos-rate-16"></rect></g><g><rect x="138.1818181818182" y="60" width="2" height="40" id="pos-rate-17"></rect></g><g><rect x="134.54545454545453" y="56.363636363636374" width="2" height="43.636363636363626" id="pos-rate-18"></rect></g><g><rect x="130.9090909090909" y="53.63636363636364" width="2" height="46.36363636363636" id="pos-rate-19"></rect></g><g><rect x="127.27272727272727" y="71.81818181818183" width="2" height="28.181818181818173" id="pos-rate-20"></rect></g><g><rect x="123.63636363636363" y="57.27272727272727" width="2" height="42.72727272727273" id="pos-rate-21"></rect></g><g><rect x="120" y="78.18181818181819" width="2" height="21.818181818181813" id="pos-rate-22"></rect></g><g><rect x="116.36363636363636" y="70" width="2" height="30" id="pos-rate-23"></rect></g><g><rect x="112.72727272727275" y="72.72727272727273" width="2" height="27.272727272727266" id="pos-rate-24"></rect></g><g><rect x="109.09090909090908" y="70.9090909090909" width="2" height="29.090909090909093" id="pos-rate-25"></rect></g><g><rect x="105.45454545454547" y="76.36363636363637" width="2" height="23.636363636363626" id="pos-rate-26"></rect></g><g><rect x="101.81818181818181" y="76.36363636363637" width="2" height="23.636363636363626" id="pos-rate-27"></rect></g><g><rect x="98.18181818181819" y="80" width="2" height="20" id="pos-rate-28"></rect></g><g><rect x="94.54545454545456" y="69.0909090909091" width="2" height="30.909090909090907" id="pos-rate-29"></rect></g><g><rect x="90.90909090909092" y="74.54545454545455" width="2" height="25.454545454545453" id="pos-rate-30"></rect></g><g><rect x="87.27272727272728" y="80.9090909090909" width="2" height="19.090909090909093" id="pos-rate-31"></rect></g><g><rect x="83.63636363636364" y="77.27272727272727" width="2" height="22.727272727272734" id="pos-rate-32"></rect></g><g><rect x="80" y="78.18181818181819" width="2" height="21.818181818181813" id="pos-rate-33"></rect></g><g><rect x="76.36363636363637" y="90.9090909090909" width="2" height="9.090909090909093" id="pos-rate-34"></rect></g><g><rect x="72.72727272727273" y="80.9090909090909" width="2" height="19.090909090909093" id="pos-rate-35"></rect></g><g><rect x="69.0909090909091" y="84.54545454545455" width="2" height="15.454545454545453" id="pos-rate-36"></rect></g><g><rect x="65.45454545454545" y="79.0909090909091" width="2" height="20.909090909090907" id="pos-rate-37"></rect></g><g><rect x="61.81818181818181" y="88.18181818181819" width="2" height="11.818181818181813" id="pos-rate-38"></rect></g><g><rect x="58.18181818181818" y="84.54545454545455" width="2" height="15.454545454545453" id="pos-rate-39"></rect></g><g><rect x="54.54545454545454" y="84.54545454545455" width="2" height="15.454545454545453" id="pos-rate-40"></rect></g><g><rect x="50.90909090909091" y="86.36363636363636" width="2" height="13.63636363636364" id="pos-rate-41"></rect></g><g><rect x="47.272727272727266" y="84.54545454545455" width="2" height="15.454545454545453" id="pos-rate-42"></rect></g><g><rect x="43.636363636363626" y="84.54545454545455" width="2" height="15.454545454545453" id="pos-rate-43"></rect></g><g><rect x="39.99999999999999" y="86.36363636363636" width="2" height="13.63636363636364" id="pos-rate-44"></rect></g><g><rect x="36.36363636363635" y="85.45454545454545" width="2" height="14.545454545454547" id="pos-rate-45"></rect></g><g><rect x="32.72727272727274" y="86.36363636363636" width="2" height="13.63636363636364" id="pos-rate-46"></rect></g><g><rect x="29.0909090909091" y="87.27272727272728" width="2" height="12.72727272727272" id="pos-rate-47"></rect></g><g><rect x="25.454545454545464" y="92.72727272727272" width="2" height="7.2727272727272805" id="pos-rate-48"></rect></g><g><rect x="21.818181818181827" y="88.18181818181819" width="2" height="11.818181818181813" id="pos-rate-49"></rect></g><g><rect x="18.181818181818187" y="88.18181818181819" width="2" height="11.818181818181813" id="pos-rate-50"></rect></g><g><rect x="14.54545454545455" y="87.27272727272728" width="2" height="12.72727272727272" id="pos-rate-51"></rect></g><g><rect x="10.909090909090914" y="84.54545454545455" width="2" height="15.454545454545453" id="pos-rate-52"></rect></g><g><rect x="7.272727272727275" y="90.9090909090909" width="2" height="9.090909090909093" id="pos-rate-53"></rect></g><g><rect x="3.6363636363636376" y="88.18181818181819" width="2" height="11.818181818181813" id="pos-rate-54"></rect></g><g><rect x="0" y="90" width="2" height="10" id="pos-rate-55"></rect></g></g><g class="fg-line pos-rate"><path d="M200,25.324675324675326L196.36363636363637,26.49350649350649L192.72727272727272,23.636363636363633L189.0909090909091,26.103896103896098L185.45454545454544,26.103896103896098L181.8181818181818,29.61038961038961L178.1818181818182,34.15584415584415L174.54545454545456,34.41558441558442L170.9090909090909,36.49350649350649L167.27272727272728,42.59740259740259L163.63636363636363,45.714285714285715L160,48.83116883116884L156.36363636363637,51.55844155844156L152.72727272727275,53.5064935064935L149.0909090909091,58.051948051948045L145.45454545454547,58.7012987012987L141.8181818181818,62.5974025974026L138.1818181818182,63.896103896103895L134.54545454545453,65.71428571428571L130.9090909090909,67.79220779220779L127.27272727272727,71.03896103896103L123.63636363636363,71.68831168831169L120,74.93506493506493L116.36363636363636,73.63636363636363L112.72727272727275,74.28571428571429L109.09090909090908,75.45454545454545L105.45454545454547,76.36363636363637L101.81818181818181,76.62337662337661L98.18181818181819,78.70129870129871L94.54545454545456,78.83116883116882L90.90909090909092,81.03896103896105L87.27272727272728,81.68831168831169L83.63636363636364,82.72727272727273L80,83.76623376623377L76.36363636363637,84.67532467532467L72.72727272727273,84.02597402597402L69.0909090909091,84.54545454545455L65.45454545454545,84.54545454545455L61.81818181818181,85.58441558441558L58.18181818181818,85.1948051948052L54.54545454545454,85.45454545454545L50.90909090909091,85.84415584415585L47.272727272727266,86.75324675324676L43.636363636363626,87.27272727272728L39.99999999999999,87.79220779220779L36.36363636363635,87.92207792207792L32.72727272727274,87.79220779220779L29.0909090909091,88.44155844155844L25.454545454545464,88.57142857142857L21.818181818181827,88.18181818181819L18.181818181818187,87.92207792207792L14.54545454545455,88.18181818181819L10.909090909090914,88.57142857142857L7.272727272727275,90L3.6363636363636376,89.6103896103896L0,89.87012987012987"></path></g></svg>