<svg viewBox="0,0,200,100"><g transform="translate(0,0)"></g><g class="fg-bars pos-rate"><g><rect x="200" y="19.999999999999996" width="2" height="80" id="pos-rate-0"></rect></g><g><rect x="196.36363636363637" y="39" width="2" height="61" id="pos-rate-1"></rect></g><g><rect x="192.72727272727272" y="7.9999999999999964" width="2" height="92" id="pos-rate-2"></rect></g><g><rect x="189.0909090909091" y="3.0000000000000027" width="2" height="97" id="pos-rate-3"></rect></g><g><rect x="185.45454545454544" y="35" width="2" height="65" id="pos-rate-4"></rect></g><g><rect x="181.8181818181818" y="34" width="2" height="66" id="pos-rate-5"></rect></g><g><rect x="178.1818181818182" y="1.0000000000000009" width="2" height="99" id="pos-rate-6"></rect></g><g><rect x="174.54545454545456" y="35" width="2" height="65" id="pos-rate-7"></rect></g><g><rect x="170.9090909090909" y="35" width="2" height="65" id="pos-rate-8"></rect></g><g><rect x="167.27272727272728" y="31.000000000000007" width="2" height="69" id="pos-rate-9"></rect></g><g><rect x="163.63636363636363" y="36" width="2" height="64" id="pos-rate-10"></rect></g><g><rect x="160" y="35" width="2" height="65" id="pos-rate-11"></rect></g><g><rect x="156.36363636363637" y="49" width="2" height="51" id="pos-rate-12"></rect></g><g><rect x="152.72727272727275" y="46" width="2" height="54" id="pos-rate-13"></rect></g><g><rect x="149.0909090909091" y="57.00000000000001" width="2" height="42.99999999999999" id="pos-rate-14"></rect></g><g><rect x="145.45454545454547" y="56.00000000000001" width="2" height="43.99999999999999" id="pos-rate-15"></rect></g><g><rect x="141.8181818181818" y="52" width="2" height="48" id="pos-rate-16"></rect></g><g><rect x="138.1818181818182" y="49" width="2" height="51" id="pos-rate-17"></rect></g><g><rect x="134.54545454545453" y="69" width="2" height="31" id="pos-rate-18"></rect></g><g><rect x="130.9090909090909" y="53" width="2" height="47" id="pos-rate-19"></rect></g><g><rect x="127.27272727272727" y="76" width="2" height="24" id="pos-rate-20"></rect></g><g><rect x="123.63636363636363" y="67" width="2" height="33" id="pos-rate-21"></rect></g><g><rect x="120" y="70" width="2" height="30" id="pos-rate-22"></rect></g><g><rect x="116.36363636363636" y="68" width="2" height="32" id="pos-rate-23"></rect></g><g><rect x="112.72727272727275" y="74" width="2" height="26" id="pos-rate-24"></rect></g><g><rect x="109.09090909090908" y="75" width="2" height="25" id="pos-rate-25"></rect></g><g><rect x="105.45454545454547" y="78" width="2" height="22" id="pos-rate-26"></rect></g><g><rect x="101.81818181818181" y="65.99999999999999" width="2" height="34.000000000000014" id="pos-rate-27"></rect></g><g><rect x="98.18181818181819" y="72" width="2" height="28" id="pos-rate-28"></rect></g><g><rect x="94.54545454545456" y="79" width="2" height="21" id="pos-rate-29"></rect></g><g><rect x="90.90909090909092" y="75" width="2" height="25" id="pos-rate-30"></rect></g><g><rect x="87.27272727272728" y="77" width="2" height="23" id="pos-rate-31"></rect></g><g><rect x="83.63636363636364" y="90" width="2" height="10" id="pos-rate-32"></rect></g><g><rect x="80" y="79" width="2" height="21" id="pos-rate-33"></rect></g><g><rect x="76.36363636363637" y="83" width="2" height="17" id="pos-rate-34"></rect></g><g><rect x="72.72727272727273" y="77" width="2" height="23" id="pos-rate-35"></rect></g><g><rect x="69.0909090909091" y="87" width="2" height="13" id="pos-rate-36"></rect></g><g><rect x="65.45454545454545" y="83" width="2" height="17" id="pos-rate-37"></rect></g><g><rect x="61.81818181818181" y="83" width="2" height="17" id="pos-rate-38"></rect></g><g><rect x="58.18181818181818" y="85" width="2" height="15" id="pos-rate-39"></rect></g><g><rect x="54.54545454545454" y="83" width="2" height="17" id="pos-rate-40"></rect></g><g><rect x="50.90909090909091" y="83" width="2" height="17" id="pos-rate-41"></rect></g><g><rect x="47.272727272727266" y="85" width="2" height="15" id="pos-rate-42"></rect></g><g><rect x="43.636363636363626" y="84" width="2" height="16" id="pos-rate-43"></rect></g><g><rect x="39.99999999999999" y="85" width="2" height="15" id="pos-rate-44"></rect></g><g><rect x="36.36363636363635" y="86" width="2" height="14" id="pos-rate-45"></rect></g><g><rect x="32.72727272727274" y="92" width="2" height="8" id="pos-rate-46"></rect></g><g><rect x="29.0909090909091" y="87" width="2" height="13" id="pos-rate-47"></rect></g><g><rect x="25.454545454545464" y="87" width="2" height="13" id="pos-rate-48"></rect></g><g><rect x="21.818181818181827" y="86" width="2" height="14" id="pos-rate-49"></rect></g><g><rect x="18.181818181818187" y="83" width="2" height="17" id="pos-rate-50"></rect></g><g><rect x="14.54545454545455" y="90" width="2" height="10" id="pos-rate-51"></rect></g><g><rect x="10.909090909090914" y="87" width="2" height="13" id="pos-rate-52"></rect></g><g><rect x="7.272727272727275" y="89" width="2" height="11" id="pos-rate-53"></rect></g><g><rect x="3.6363636363636376" y="85" width="2" height="15" id="pos-rate-54"></rect></g><g><rect x="0" y="89" width="2" height="11" id="pos-rate-55"></rect></g></g><g class="fg-line pos-rate"><path d="M200,19.999999999999996L196.36363636363637,22.142857142857142L192.72727272727272,21.571428571428577L189.0909090909091,24.85714285714287L185.45454545454544,29.57142857142857L181.8181818181818,29.57142857142857L178.1818181818182,31.714285714285705L174.54545454545456,38.142857142857146L170.9090909090909,41.28571428571428L167.27272727272728,44.285714285714285L163.63636363636363,47.285714285714285L160,49.142857142857146L156.36363636363637,54L152.72727272727275,54.57142857142857L149.0909090909091,58.857142857142854L145.45454545454547,60.285714285714285L141.8181818181818,62.28571428571428L138.1818181818182,64.57142857142857L134.54545454545453,68.14285714285715L130.9090909090909,69L127.27272727272727,72.57142857142857L123.63636363636363,71.14285714285714L120,71.85714285714286L116.36363636363636,73.14285714285714L112.72727272727275,74.14285714285714L109.09090909090908,74.57142857142858L105.45454545454547,76.71428571428571L101.81818181818181,76.85714285714286L98.18181818181819,79.28571428571428L94.54545454545456,80L90.90909090909092,81.14285714285714L87.27272727272728,82.28571428571428L83.63636363636364,83.14285714285714L80,82.42857142857143L76.36363636363637,83L72.72727272727273,83L69.0909090909091,84.14285714285714L65.45454545454545,83.71428571428572L61.81818181818181,84L58.18181818181818,84.42857142857143L54.54545454545454,85.42857142857143L50.90909090909091,86L47.272727272727266,86.57142857142857L43.636363636363626,86.71428571428571L39.99999999999999,86.57142857142857L36.36363636363635,87.28571428571429L32.72727272727274,87.42857142857143L29.0909090909091,87L25.454545454545464,86.71428571428571L21.818181818181827,87L18.181818181818187,87.42857142857143L14.54545454545455,89L10.909090909090914,88.57142857142857L7.272727272727275,88.85714285714286L3.6363636363636376,89.71428571428571L0,90.28571428571428"></path></g></svg>