<svg viewBox="0,0,200,100"><g transform="translate(0,0)"></g><g class="fg-bars pos-rate"><g><rect x="200" y="39" width="2" height="61" id="pos-rate-0"></rect></g><g><rect x="196.36363636363637" y="7.9999999999999964" width="2" height="92" id="pos-rate-1"></rect></g><g><rect x="192.72727272727272" y="3.0000000000000027" width="2" height="97" id="pos-rate-2"></rect></g><g><rect x="189.0909090909091" y="35" width="2" height="65" id="pos-rate-3"></rect></g><g><rect x="185.45454545454544" y="34" width="2" height="66" id="pos-rate-4"></rect></g><g><rect x="181.8181818181818" y="1.0000000000000009" width="2" height="99" id="pos-rate-5"></rect></g><g><rect x="178.1818181818182" y="35" width="2" height="65" id="pos-rate-6"></rect></g><g><rect x="174.54545454545456" y="35" width="2" height="65" id="pos-rate-7"></rect></g><g><rect x="170.9090909090909" y="31.000000000000007" width="2" height="69" id="pos-rate-8"></rect></g><g><rect x="167.27272727272728" y="36" width="2" height="64" id="pos-rate-9"></rect></g><g><rect x="163.63636363636363" y="35" width="2" height="65" id="pos-rate-10"></rect></g><g><rect x="160" y="49" width="2" height="51" id="pos-rate-11"></rect></g><g><rect x="156.36363636363637" y="46" width="2" height="54" id="pos-rate-12"></rect></g><g><rect x="152.72727272727275" y="57.00000000000001" width="2" height="42.99999999999999" id="pos-rate-13"></rect></g><g><rect x="149.0909090909091" y="56.00000000000001" width="2" height="43.99999999999999" id="pos-rate-14"></rect></g><g><rect x="145.45454545454547" y="52" width="2" height="48" id="pos-rate-15"></rect></g><g><rect x="141.8181818181818" y="49" width="2" height="51" id="pos-rate-16"></rect></g><g><rect x="138.1818181818182" y="69" width="2" height="31" id="pos-rate-17"></rect></g><g><rect x="134.54545454545453" y="53" width="2" height="47" id="pos-rate-18"></rect></g><g><rect x="130.9090909090909" y="76" width="2" height="24" id="pos-rate-19"></rect></g><g><rect x="127.27272727272727" y="67" width="2" height="33" id="pos-rate-20"></rect></g><g><rect x="123.63636363636363" y="70" width="2" height="30" id="pos-rate-21"></rect></g><g><rect x="120" y="68" width="2" height="32" id="pos-rate-22"></rect></g><g><rect x="116.36363636363636" y="74" width="2" height="26" id="pos-rate-23"></rect></g><g><rect x="112.72727272727275" y="75" width="2" height="25" id="pos-rate-24"></rect></g><g><rect x="109.09090909090908" y="78" width="2" height="22" id="pos-rate-25"></rect></g><g><rect x="105.45454545454547" y="65.99999999999999" width="2" height="34.000000000000014" id="pos-rate-26"></rect></g><g><rect x="101.81818181818181" y="72" width="2" height="28" id="pos-rate-27"></rect></g><g><rect x="98.18181818181819" y="79" width="2" height="21" id="pos-rate-28"></rect></g><g><rect x="94.54545454545456" y="75" width="2" height="25" id="pos-rate-29"></rect></g><g><rect x="90.90909090909092" y="77" width="2" height="23" id="pos-rate-30"></rect></g><g><rect x="87.27272727272728" y="90" width="2" height="10" id="pos-rate-31"></rect></g><g><rect x="83.63636363636364" y="79" width="2" height="21" id="pos-rate-32"></rect></g><g><rect x="80" y="83" width="2" height="17" id="pos-rate-33"></rect></g><g><rect x="76.36363636363637" y="77" width="2" height="23" id="pos-rate-34"></rect></g><g><rect x="72.72727272727273" y="87" width="2" height="13" id="pos-rate-35"></rect></g><g><rect x="69.0909090909091" y="83" width="2" height="17" id="pos-rate-36"></rect></g><g><rect x="65.45454545454545" y="83" width="2" height="17" id="pos-rate-37"></rect></g><g><rect x="61.81818181818181" y="85" width="2" height="15" id="pos-rate-38"></rect></g><g><rect x="58.18181818181818" y="83" width="2" height="17" id="pos-rate-39"></rect></g><g><rect x="54.54545454545454" y="83" width="2" height="17" id="pos-rate-40"></rect></g><g><rect x="50.90909090909091" y="85" width="2" height="15" id="pos-rate-41"></rect></g><g><rect x="47.272727272727266" y="84" width="2" height="16" id="pos-rate-42"></rect></g><g><rect x="43.636363636363626" y="85" width="2" height="15" id="pos-rate-43"></rect></g><g><rect x="39.99999999999999" y="86" width="2" height="14" id="pos-rate-44"></rect></g><g><rect x="36.36363636363635" y="92" width="2" height="8" id="pos-rate-45"></rect></g><g><rect x="32.72727272727274" y="87" width="2" height="13" id="pos-rate-46"></rect></g><g><rect x="29.0909090909091" y="87" width="2" height="13" id="pos-rate-47"></rect></g><g><rect x="25.454545454545464" y="86" width="2" height="14" id="pos-rate-48"></rect></g><g><rect x="21.818181818181827" y="83" width="2" height="17" id="pos-rate-49"></rect></g><g><rect x="18.181818181818187" y="90" width="2" height="10" id="pos-rate-50"></rect></g><g><rect x="14.54545454545455" y="87" width="2" height="13" id="pos-rate-51"></rect></g><g><rect x="10.909090909090914" y="89" width="2" height="11" id="pos-rate-52"></rect></g><g><rect x="7.272727272727275" y="85" width="2" height="15" id="pos-rate-53"></rect></g><g><rect x="3.6363636363636376" y="89" width="2" height="11" id="pos-rate-54"></rect></g><g><rect x="0" y="89" width="2" height="11" id="pos-rate-55"></rect></g></g><g class="fg-line pos-rate"><path d="M200,22.142857142857142L196.36363636363637,21.571428571428577L192.72727272727272,24.85714285714287L189.0909090909091,29.57142857142857L185.45454545454544,29.57142857142857L181.8181818181818,31.714285714285705L178.1818181818182,38.142857142857146L174.54545454545456,41.28571428571428L170.9090909090909,44.285714285714285L167.27272727272728,47.285714285714285L163.63636363636363,49.142857142857146L160,54L156.36363636363637,54.57142857142857L152.72727272727275,58.857142857142854L149.0909090909091,60.285714285714285L145.45454545454547,62.28571428571428L141.8181818181818,64.57142857142857L138.1818181818182,68.14285714285715L134.54545454545453,69L130.9090909090909,72.57142857142857L127.27272727272727,71.14285714285714L123.63636363636363,71.85714285714286L120,73.14285714285714L116.36363636363636,74.14285714285714L112.72727272727275,74.57142857142858L109.09090909090908,76.71428571428571L105.45454545454547,76.85714285714286L101.81818181818181,79.28571428571428L98.18181818181819,80L94.54545454545456,81.14285714285714L90.90909090909092,82.28571428571428L87.27272727272728,83.14285714285714L83.63636363636364,82.42857142857143L80,83L76.36363636363637,83L72.72727272727273,84.14285714285714L69.0909090909091,83.71428571428572L65.45454545454545,84L61.81818181818181,84.42857142857143L58.18181818181818,85.42857142857143L54.54545454545454,86L50.90909090909091,86.57142857142857L47.272727272727266,86.71428571428571L43.636363636363626,86.57142857142857L39.99999999999999,87.28571428571429L36.36363636363635,87.42857142857143L32.72727272727274,87L29.0909090909091,86.71428571428571L25.454545454545464,87L21.818181818181827,87.42857142857143L18.181818181818187,89L14.54545454545455,88.57142857142857L10.909090909090914,88.85714285714286L7.272727272727275,89.71428571428571L3.6363636363636376,90.28571428571428L0,90.14285714285715"></path></g></svg>