<svg viewBox="0,0,200,100"><g transform="translate(0,0)"></g><g class="fg-bars pos-rate"><g><rect x="200" y="45.43888888888888" width="2" height="54.56111111111112" id="pos-rate-0"></rect></g><g><rect x="196.36363636363637" y="36.46111111111111" width="2" height="63.53888888888889" id="pos-rate-1"></rect></g><g><rect x="192.72727272727272" y="36.022222222222226" width="2" height="63.977777777777774" id="pos-rate-2"></rect></g><g><rect x="189.0909090909091" y="30.761111111111106" width="2" height="69.2388888888889" id="pos-rate-3"></rect></g><g><rect x="185.45454545454544" y="67.27777777777777" width="2" height="32.72222222222223" id="pos-rate-4"></rect></g><g><rect x="181.8181818181818" y="59.79444444444444" width="2" height="40.20555555555556" id="pos-rate-5"></rect></g><g><rect x="178.1818181818182" y="40.28333333333334" width="2" height="59.71666666666666" id="pos-rate-6"></rect></g><g><rect x="174.54545454545456" y="33.18888888888889" width="2" height="66.8111111111111" id="pos-rate-7"></rect></g><g><rect x="170.9090909090909" y="26.59444444444444" width="2" height="73.40555555555557" id="pos-rate-8"></rect></g><g><rect x="167.27272727272728" y="24.033333333333328" width="2" height="75.96666666666667" id="pos-rate-9"></rect></g><g><rect x="163.63636363636363" y="16.65555555555556" width="2" height="83.34444444444443" id="pos-rate-10"></rect></g><g><rect x="160" y="59.52777777777778" width="2" height="40.47222222222222" id="pos-rate-11"></rect></g><g><rect x="156.36363636363637" y="51.59444444444444" width="2" height="48.40555555555556" id="pos-rate-12"></rect></g><g><rect x="152.72727272727275" y="26.722222222222225" width="2" height="73.27777777777777" id="pos-rate-13"></rect></g><g><rect x="149.0909090909091" y="23.733333333333327" width="2" height="76.26666666666668" id="pos-rate-14"></rect></g><g><rect x="145.45454545454547" y="17.51666666666667" width="2" height="82.48333333333333" id="pos-rate-15"></rect></g><g><rect x="141.8181818181818" y="15.37222222222222" width="2" height="84.62777777777778" id="pos-rate-16"></rect></g><g><rect x="138.1818181818182" y="12.038888888888888" width="2" height="87.96111111111111" id="pos-rate-17"></rect></g><g><rect x="134.54545454545453" y="55.47777777777778" width="2" height="44.52222222222222" id="pos-rate-18"></rect></g><g><rect x="130.9090909090909" y="47.38333333333333" width="2" height="52.61666666666667" id="pos-rate-19"></rect></g><g><rect x="127.27272727272727" y="24.16111111111111" width="2" height="75.83888888888889" id="pos-rate-20"></rect></g><g><rect x="123.63636363636363" y="19.377777777777784" width="2" height="80.62222222222222" id="pos-rate-21"></rect></g><g><rect x="120" y="14.977777777777778" width="2" height="85.02222222222223" id="pos-rate-22"></rect></g><g><rect x="116.36363636363636" y="11.172222222222217" width="2" height="88.82777777777778" id="pos-rate-23"></rect></g><g><rect x="112.72727272727275" y="10.744444444444445" width="2" height="89.25555555555556" id="pos-rate-24"></rect></g><g><rect x="109.09090909090908" y="52.794444444444444" width="2" height="47.205555555555556" id="pos-rate-25"></rect></g><g><rect x="105.45454545454547" y="47.08888888888889" width="2" height="52.91111111111111" id="pos-rate-26"></rect></g><g><rect x="101.81818181818181" y="29.255555555555556" width="2" height="70.74444444444444" id="pos-rate-27"></rect></g><g><rect x="98.18181818181819" y="24.005555555555556" width="2" height="75.99444444444444" id="pos-rate-28"></rect></g><g><rect x="94.54545454545456" y="22.677777777777774" width="2" height="77.32222222222222" id="pos-rate-29"></rect></g><g><rect x="90.90909090909092" y="21.02777777777778" width="2" height="78.97222222222223" id="pos-rate-30"></rect></g><g><rect x="87.27272727272728" y="22.86111111111111" width="2" height="77.13888888888889" id="pos-rate-31"></rect></g><g><rect x="83.63636363636364" y="53.63888888888889" width="2" height="46.36111111111111" id="pos-rate-32"></rect></g><g><rect x="80" y="53.31666666666667" width="2" height="46.68333333333333" id="pos-rate-33"></rect></g><g><rect x="76.36363636363637" y="39.03888888888889" width="2" height="60.96111111111111" id="pos-rate-34"></rect></g><g><rect x="72.72727272727273" y="35.333333333333336" width="2" height="64.66666666666666" id="pos-rate-35"></rect></g><g><rect x="69.0909090909091" y="34.82777777777778" width="2" height="65.17222222222222" id="pos-rate-36"></rect></g><g><rect x="65.45454545454545" y="38.11111111111111" width="2" height="61.88888888888889" id="pos-rate-37"></rect></g><g><rect x="61.81818181818181" y="35.42777777777778" width="2" height="64.57222222222222" id="pos-rate-38"></rect></g><g><rect x="58.18181818181818" y="64.72222222222221" width="2" height="35.277777777777786" id="pos-rate-39"></rect></g><g><rect x="54.54545454545454" y="62.855555555555554" width="2" height="37.144444444444446" id="pos-rate-40"></rect></g><g><rect x="50.90909090909091" y="55.49444444444445" width="2" height="44.50555555555555" id="pos-rate-41"></rect></g><g><rect x="47.272727272727266" y="54.20555555555555" width="2" height="45.79444444444445" id="pos-rate-42"></rect></g><g><rect x="43.636363636363626" y="51.66666666666666" width="2" height="48.33333333333334" id="pos-rate-43"></rect></g><g><rect x="39.99999999999999" y="54.07777777777778" width="2" height="45.92222222222222" id="pos-rate-44"></rect></g><g><rect x="36.36363636363635" y="53.87222222222222" width="2" height="46.12777777777778" id="pos-rate-45"></rect></g><g><rect x="32.72727272727274" y="73.74444444444444" width="2" height="26.25555555555556" id="pos-rate-46"></rect></g><g><rect x="29.0909090909091" y="74.39444444444445" width="2" height="25.605555555555554" id="pos-rate-47"></rect></g><g><rect x="25.454545454545464" y="67.15555555555555" width="2" height="32.84444444444445" id="pos-rate-48"></rect></g><g><rect x="21.818181818181827" y="67.73888888888888" width="2" height="32.26111111111112" id="pos-rate-49"></rect></g><g><rect x="18.181818181818187" y="69.38333333333333" width="2" height="30.616666666666674" id="pos-rate-50"></rect></g><g><rect x="14.54545454545455" y="70.36666666666666" width="2" height="29.63333333333334" id="pos-rate-51"></rect></g><g><rect x="10.909090909090914" y="70.46666666666667" width="2" height="29.53333333333333" id="pos-rate-52"></rect></g><g><rect x="7.272727272727275" y="82.78888888888889" width="2" height="17.21111111111111" id="pos-rate-53"></rect></g><g><rect x="3.6363636363636376" y="82.75" width="2" height="17.25" id="pos-rate-54"></rect></g><g><rect x="0" y="80.13333333333334" width="2" height="19.86666666666666" id="pos-rate-55"></rect></g></g><g class="fg-line pos-rate"><path d="M200,45.1484126984127L196.36363636363637,43.398412698412706L192.72727272727272,41.98888888888889L189.0909090909091,40.27619047619048L185.45454545454544,38.26111111111111L181.8181818181818,37.15396825396826L178.1818181818182,35.98253968253968L174.54545454545456,34.0452380952381L170.9090909090909,32.69444444444445L167.27272727272728,31.397619047619052L163.63636363636363,30.160317460317465L160,29.500793650793643L156.36363636363637,28.922222222222228L152.72727272727275,28.320634920634923L149.0909090909091,27.954761904761906L145.45454545454547,27.332539682539682L141.8181818181818,26.969841269841275L138.1818181818182,26.369841269841277L134.54545454545453,26.184920634920626L130.9090909090909,25.801587301587304L127.27272727272727,25.75952380952381L123.63636363636363,26.487301587301594L120,27.148412698412706L116.36363636363636,28.248412698412707L112.72727272727275,29.65634920634921L109.09090909090908,31.387301587301586L105.45454545454547,31.507936507936506L101.81818181818181,32.39761904761905L98.18181818181819,33.79523809523809L94.54545454545456,35.41349206349206L90.90909090909092,37.14920634920635L87.27272727272728,39.589682539682535L83.63636363636364,41.38492063492063L80,42.96825396825397L76.36363636363637,44.33095238095238L72.72727272727273,46.68174603174603L69.0909090909091,49.37777777777777L65.45454545454545,51.78333333333334L61.81818181818181,54.06428571428572L58.18181818181818,56.69920634920636L54.54545454545454,57.98809523809524L50.90909090909091,59.63650793650794L47.272727272727266,61.30238095238095L43.636363636363626,63.23571428571428L39.99999999999999,65.76666666666667L36.36363636363635,68.0936507936508L32.72727272727274,70.46428571428571L29.0909090909091,71.75634920634921L25.454545454545464,72.95L21.818181818181827,74.80396825396825L18.181818181818187,76.59126984126983L14.54545454545455,78.0015873015873L10.909090909090914,79.3984126984127L7.272727272727275,81.44444444444444L3.6363636363636376,82.68174603174603L0,83.80634920634921"></path></g></svg>