<svg viewBox="0,0,200,100"><g transform="translate(0,0)"></g><g class="fg-bars pos-rate"><g><rect x="200" y="77.84444444444445" width="2" height="22.15555555555555" id="pos-rate-0"></rect></g><g><rect x="196.36363636363637" y="68.89444444444445" width="2" height="31.105555555555554" id="pos-rate-1"></rect></g><g><rect x="192.72727272727272" y="51.38333333333334" width="2" height="48.61666666666666" id="pos-rate-2"></rect></g><g><rect x="189.0909090909091" y="44.044444444444444" width="2" height="55.955555555555556" id="pos-rate-3"></rect></g><g><rect x="185.45454545454544" y="34.47222222222223" width="2" height="65.52777777777777" id="pos-rate-4"></rect></g><g><rect x="181.8181818181818" y="34.761111111111106" width="2" height="65.2388888888889" id="pos-rate-5"></rect></g><g><rect x="178.1818181818182" y="29.51666666666667" width="2" height="70.48333333333333" id="pos-rate-6"></rect></g><g><rect x="174.54545454545456" y="65.86666666666667" width="2" height="34.133333333333326" id="pos-rate-7"></rect></g><g><rect x="170.9090909090909" y="58.68888888888889" width="2" height="41.31111111111111" id="pos-rate-8"></rect></g><g><rect x="167.27272727272728" y="39.28333333333334" width="2" height="60.71666666666666" id="pos-rate-9"></rect></g><g><rect x="163.63636363636363" y="32.46666666666667" width="2" height="67.53333333333333" id="pos-rate-10"></rect></g><g><rect x="160" y="26.244444444444447" width="2" height="73.75555555555556" id="pos-rate-11"></rect></g><g><rect x="156.36363636363637" y="23.86111111111111" width="2" height="76.13888888888889" id="pos-rate-12"></rect></g><g><rect x="152.72727272727275" y="16.594444444444445" width="2" height="83.40555555555555" id="pos-rate-13"></rect></g><g><rect x="149.0909090909091" y="59.46666666666667" width="2" height="40.53333333333333" id="pos-rate-14"></rect></g><g><rect x="145.45454545454547" y="51.516666666666666" width="2" height="48.483333333333334" id="pos-rate-15"></rect></g><g><rect x="141.8181818181818" y="26.955555555555556" width="2" height="73.04444444444445" id="pos-rate-16"></rect></g><g><rect x="138.1818181818182" y="23.90555555555556" width="2" height="76.09444444444443" id="pos-rate-17"></rect></g><g><rect x="134.54545454545453" y="17.422222222222217" width="2" height="82.57777777777778" id="pos-rate-18"></rect></g><g><rect x="130.9090909090909" y="15.416666666666668" width="2" height="84.58333333333333" id="pos-rate-19"></rect></g><g><rect x="127.27272727272727" y="12.088888888888894" width="2" height="87.91111111111111" id="pos-rate-20"></rect></g><g><rect x="123.63636363636363" y="55.49999999999999" width="2" height="44.50000000000001" id="pos-rate-21"></rect></g><g><rect x="120" y="47.36666666666667" width="2" height="52.63333333333333" id="pos-rate-22"></rect></g><g><rect x="116.36363636363636" y="24.150000000000006" width="2" height="75.85" id="pos-rate-23"></rect></g><g><rect x="112.72727272727275" y="19.34444444444444" width="2" height="80.65555555555557" id="pos-rate-24"></rect></g><g><rect x="109.09090909090908" y="14.916666666666668" width="2" height="85.08333333333333" id="pos-rate-25"></rect></g><g><rect x="105.45454545454547" y="11.105555555555558" width="2" height="88.89444444444445" id="pos-rate-26"></rect></g><g><rect x="101.81818181818181" y="10.688888888888892" width="2" height="89.3111111111111" id="pos-rate-27"></rect></g><g><rect x="98.18181818181819" y="52.76666666666667" width="2" height="47.23333333333333" id="pos-rate-28"></rect></g><g><rect x="94.54545454545456" y="47.016666666666666" width="2" height="52.983333333333334" id="pos-rate-29"></rect></g><g><rect x="90.90909090909092" y="29.21111111111111" width="2" height="70.78888888888889" id="pos-rate-30"></rect></g><g><rect x="87.27272727272728" y="23.961111111111112" width="2" height="76.03888888888889" id="pos-rate-31"></rect></g><g><rect x="83.63636363636364" y="22.672222222222228" width="2" height="77.32777777777777" id="pos-rate-32"></rect></g><g><rect x="80" y="21.044444444444444" width="2" height="78.95555555555555" id="pos-rate-33"></rect></g><g><rect x="76.36363636363637" y="22.805555555555557" width="2" height="77.19444444444444" id="pos-rate-34"></rect></g><g><rect x="72.72727272727273" y="53.64444444444445" width="2" height="46.35555555555555" id="pos-rate-35"></rect></g><g><rect x="69.0909090909091" y="53.32222222222222" width="2" height="46.67777777777778" id="pos-rate-36"></rect></g><g><rect x="65.45454545454545" y="39.00555555555556" width="2" height="60.99444444444444" id="pos-rate-37"></rect></g><g><rect x="61.81818181818181" y="35.3" width="2" height="64.7" id="pos-rate-38"></rect></g><g><rect x="58.18181818181818" y="34.81111111111112" width="2" height="65.18888888888888" id="pos-rate-39"></rect></g><g><rect x="54.54545454545454" y="38.1" width="2" height="61.9" id="pos-rate-40"></rect></g><g><rect x="50.90909090909091" y="35.39444444444444" width="2" height="64.60555555555555" id="pos-rate-41"></rect></g><g><rect x="47.272727272727266" y="64.71666666666667" width="2" height="35.28333333333333" id="pos-rate-42"></rect></g><g><rect x="43.636363636363626" y="62.82777777777777" width="2" height="37.17222222222223" id="pos-rate-43"></rect></g><g><rect x="39.99999999999999" y="55.49444444444445" width="2" height="44.50555555555555" id="pos-rate-44"></rect></g><g><rect x="36.36363636363635" y="54.20555555555555" width="2" height="45.79444444444445" id="pos-rate-45"></rect></g><g><rect x="32.72727272727274" y="51.67222222222223" width="2" height="48.32777777777777" id="pos-rate-46"></rect></g><g><rect x="29.0909090909091" y="54.07222222222222" width="2" height="45.92777777777778" id="pos-rate-47"></rect></g><g><rect x="25.454545454545464" y="53.833333333333336" width="2" height="46.166666666666664" id="pos-rate-48"></rect></g><g><rect x="21.818181818181827" y="73.70555555555556" width="2" height="26.294444444444437" id="pos-rate-49"></rect></g><g><rect x="18.181818181818187" y="74.36666666666667" width="2" height="25.633333333333326" id="pos-rate-50"></rect></g><g><rect x="14.54545454545455" y="67.13888888888889" width="2" height="32.861111111111114" id="pos-rate-51"></rect></g><g><rect x="10.909090909090914" y="67.71666666666667" width="2" height="32.28333333333333" id="pos-rate-52"></rect></g><g><rect x="7.272727272727275" y="69.37777777777778" width="2" height="30.62222222222222" id="pos-rate-53"></rect></g><g><rect x="3.6363636363636376" y="70.37222222222222" width="2" height="29.62777777777778" id="pos-rate-54"></rect></g><g><rect x="0" y="70.46666666666667" width="2" height="29.53333333333333" id="pos-rate-55"></rect></g></g><g class="fg-line pos-rate"><path d="M200,48.70238095238095L196.36363636363637,46.99126984126983L192.72727272727272,45.53333333333334L189.0909090909091,43.804761904761904L185.45454545454544,42.15079365079365L181.8181818181818,40.97539682539683L178.1818181818182,39.41825396825397L174.54545454545456,37.572222222222216L170.9090909090909,36.657936507936505L167.27272727272728,35.633333333333326L163.63636363636363,33.87222222222223L160,32.64920634920635L156.36363636363637,31.38888888888889L152.72727272727275,30.182539682539687L149.0909090909091,29.53888888888889L145.45454545454547,28.97222222222222L141.8181818181818,28.379365079365083L138.1818181818182,27.97857142857143L134.54545454545453,27.326984126984133L130.9090909090909,26.969047619047615L127.27272727272727,26.35317460317461L123.63636363636363,26.153174603174612L120,25.762698412698416L116.36363636363636,25.71269841269841L112.72727272727275,26.435714285714283L109.09090909090908,27.095238095238095L105.45454545454547,28.20317460317461L101.81818181818181,29.623015873015866L98.18181818181819,31.353968253968254L94.54545454545456,31.479365079365074L90.90909090909092,32.380158730158726L87.27272727272728,33.77936507936508L83.63636363636364,35.399206349206345L80,37.133333333333326L76.36363636363637,39.56984126984128L72.72727272727273,41.36825396825397L69.0909090909091,42.95L65.45454545454545,44.30793650793651L61.81818181818181,46.663492063492065L58.18181818181818,49.364285714285714L54.54545454545454,51.77301587301587L50.90909090909091,54.054761904761904L47.272727272727266,56.68888888888889L43.636363636363626,57.97301587301587L39.99999999999999,59.62142857142858L36.36363636363635,61.28492063492064L32.72727272727274,63.21507936507936L29.0909090909091,65.74444444444445L25.454545454545464,68.07301587301588L21.818181818181827,70.44920634920635L18.181818181818187,71.7452380952381L14.54545454545455,72.9420634920635L10.909090909090914,74.79920634920634L7.272727272727275,76.59047619047618L3.6363636363636376,78.0015873015873L0,79.3984126984127"></path></g></svg>