<svg viewBox="0,0,200,100"><g transform="translate(0,0)"></g><g class="fg-bars pos-rate"><g><rect x="200" y="71.27076923076923" width="2" height="28.729230769230767" id="pos-rate-0"></rect></g><g><rect x="196.36363636363637" y="51.96153846153846" width="2" height="48.03846153846154" id="pos-rate-1"></rect></g><g><rect x="192.72727272727272" y="12.223076923076926" width="2" height="87.77692307692307" id="pos-rate-2"></rect></g><g><rect x="189.0909090909091" y="29.923846153846156" width="2" height="70.07615384615384" id="pos-rate-3"></rect></g><g><rect x="185.45454545454544" y="27.965384615384615" width="2" height="72.03461538461539" id="pos-rate-4"></rect></g><g><rect x="181.8181818181818" y="25.34923076923077" width="2" height="74.65076923076923" id="pos-rate-5"></rect></g><g><rect x="178.1818181818182" y="24.486153846153847" width="2" height="75.51384615384615" id="pos-rate-6"></rect></g><g><rect x="174.54545454545456" y="67.73076923076924" width="2" height="32.26923076923076" id="pos-rate-7"></rect></g><g><rect x="170.9090909090909" y="41.62923076923077" width="2" height="58.37076923076923" id="pos-rate-8"></rect></g><g><rect x="167.27272727272728" y="3.9153846153846206" width="2" height="96.08461538461538" id="pos-rate-9"></rect></g><g><rect x="163.63636363636363" y="21.639230769230767" width="2" height="78.36076923076924" id="pos-rate-10"></rect></g><g><rect x="160" y="22.506153846153843" width="2" height="77.49384615384616" id="pos-rate-11"></rect></g><g><rect x="156.36363636363637" y="19.470769230769235" width="2" height="80.52923076923076" id="pos-rate-12"></rect></g><g><rect x="152.72727272727275" y="19.759999999999998" width="2" height="80.24000000000001" id="pos-rate-13"></rect></g><g><rect x="149.0909090909091" y="68.11769230769231" width="2" height="31.88230769230769" id="pos-rate-14"></rect></g><g><rect x="145.45454545454547" y="42.71307692307692" width="2" height="57.28692307692308" id="pos-rate-15"></rect></g><g><rect x="141.8181818181818" y="4.4307692307692275" width="2" height="95.56923076923077" id="pos-rate-16"></rect></g><g><rect x="138.1818181818182" y="22.90153846153846" width="2" height="77.09846153846154" id="pos-rate-17"></rect></g><g><rect x="134.54545454545453" y="22.605384615384615" width="2" height="77.39461538461538" id="pos-rate-18"></rect></g><g><rect x="130.9090909090909" y="22.544615384615383" width="2" height="77.45538461538462" id="pos-rate-19"></rect></g><g><rect x="127.27272727272727" y="26.269230769230766" width="2" height="73.73076923076923" id="pos-rate-20"></rect></g><g><rect x="123.63636363636363" y="71.11615384615384" width="2" height="28.883846153846164" id="pos-rate-21"></rect></g><g><rect x="120" y="44.55" width="2" height="55.45" id="pos-rate-22"></rect></g><g><rect x="116.36363636363636" y="15.268461538461542" width="2" height="84.73153846153846" id="pos-rate-23"></rect></g><g><rect x="112.72727272727275" y="32.67230769230769" width="2" height="67.3276923076923" id="pos-rate-24"></rect></g><g><rect x="109.09090909090908" y="37.57538461538461" width="2" height="62.42461538461539" id="pos-rate-25"></rect></g><g><rect x="105.45454545454547" y="30.510000000000005" width="2" height="69.49" id="pos-rate-26"></rect></g><g><rect x="101.81818181818181" y="33.07" width="2" height="66.93" id="pos-rate-27"></rect></g><g><rect x="98.18181818181819" y="73.26846153846154" width="2" height="26.731538461538463" id="pos-rate-28"></rect></g><g><rect x="94.54545454545456" y="51.18846153846154" width="2" height="48.81153846153846" id="pos-rate-29"></rect></g><g><rect x="90.90909090909092" y="20.137692307692312" width="2" height="79.8623076923077" id="pos-rate-30"></rect></g><g><rect x="87.27272727272728" y="34.190769230769234" width="2" height="65.80923076923077" id="pos-rate-31"></rect></g><g><rect x="83.63636363636364" y="35.67076923076923" width="2" height="64.32923076923078" id="pos-rate-32"></rect></g><g><rect x="80" y="31.70307692307692" width="2" height="68.29692307692308" id="pos-rate-33"></rect></g><g><rect x="76.36363636363637" y="38.92307692307693" width="2" height="61.07692307692307" id="pos-rate-34"></rect></g><g><rect x="72.72727272727273" y="77.03923076923077" width="2" height="22.96076923076923" id="pos-rate-35"></rect></g><g><rect x="69.0909090909091" y="54.20230769230769" width="2" height="45.79769230769231" id="pos-rate-36"></rect></g><g><rect x="65.45454545454545" y="26.169230769230765" width="2" height="73.83076923076923" id="pos-rate-37"></rect></g><g><rect x="61.81818181818181" y="37.54153846153846" width="2" height="62.45846153846154" id="pos-rate-38"></rect></g><g><rect x="58.18181818181818" y="35.55384615384616" width="2" height="64.44615384615383" id="pos-rate-39"></rect></g><g><rect x="54.54545454545454" y="34.79846153846153" width="2" height="65.20153846153846" id="pos-rate-40"></rect></g><g><rect x="50.90909090909091" y="44.786153846153844" width="2" height="55.213846153846156" id="pos-rate-41"></rect></g><g><rect x="47.272727272727266" y="80.31384615384616" width="2" height="19.686153846153843" id="pos-rate-42"></rect></g><g><rect x="43.636363636363626" y="56.92923076923078" width="2" height="43.07076923076922" id="pos-rate-43"></rect></g><g><rect x="39.99999999999999" y="29.568461538461545" width="2" height="70.43153846153845" id="pos-rate-44"></rect></g><g><rect x="36.36363636363635" y="40.49769230769231" width="2" height="59.50230769230769" id="pos-rate-45"></rect></g><g><rect x="32.72727272727274" y="40.739999999999995" width="2" height="59.260000000000005" id="pos-rate-46"></rect></g><g><rect x="29.0909090909091" y="39.16692307692308" width="2" height="60.83307692307692" id="pos-rate-47"></rect></g><g><rect x="25.454545454545464" y="46.74230769230769" width="2" height="53.25769230769231" id="pos-rate-48"></rect></g><g><rect x="21.818181818181827" y="79.62923076923076" width="2" height="20.37076923076924" id="pos-rate-49"></rect></g><g><rect x="18.181818181818187" y="57.42538461538462" width="2" height="42.57461538461538" id="pos-rate-50"></rect></g><g><rect x="14.54545454545455" y="34.419230769230765" width="2" height="65.58076923076923" id="pos-rate-51"></rect></g><g><rect x="10.909090909090914" y="45.871538461538464" width="2" height="54.128461538461536" id="pos-rate-52"></rect></g><g><rect x="7.272727272727275" y="46.45" width="2" height="53.55" id="pos-rate-53"></rect></g><g><rect x="3.6363636363636376" y="44.32769230769231" width="2" height="55.67230769230769" id="pos-rate-54"></rect></g><g><rect x="0" y="47.597692307692306" width="2" height="52.402307692307694" id="pos-rate-55"></rect></g></g><g class="fg-line pos-rate"><path d="M200,34.74L196.36363636363637,34.23428571428572L192.72727272727272,32.75824175824176L189.0909090909091,31.571428571428573L185.45454545454544,30.387912087912085L181.8181818181818,29.60802197802197L178.1818181818182,28.768241758241764L174.54545454545456,28.09307692307692L170.9090909090909,28.148351648351657L167.27272727272728,28.30318681318681L163.63636363636363,28.376813186813187L160,28.557142857142857L156.36363636363637,28.57131868131868L152.72727272727275,29.01043956043956L149.0909090909091,29.940329670329668L145.45454545454547,30.36868131868131L141.8181818181818,30.631098901098895L138.1818181818182,32.17934065934066L134.54545454545453,33.57516483516484L130.9090909090909,35.713736263736266L127.27272727272727,36.85164835164835L123.63636363636363,37.823186813186815L120,38.13065934065934L116.36363636363636,39.07901098901099L112.72727272727275,39.77461538461539L109.09090909090908,39.991538461538454L105.45454545454547,39.71945054945054L101.81818181818181,39.88989010989011L98.18181818181819,40.72604395604395L94.54545454545456,41.26472527472528L90.90909090909092,41.69527472527472L87.27272727272728,42.556923076923084L83.63636363636364,43.03560439560439L80,43.01890109890111L76.36363636363637,43.46109890109889L72.72727272727273,44.29868131868131L69.0909090909091,44.76648351648351L65.45454545454545,45.15604395604396L61.81818181818181,45.64164835164834L58.18181818181818,46.06395604395605L54.54545454545454,46.804835164835154L50.90909090909091,47.4289010989011L47.272727272727266,47.70835164835165L43.636363636363626,47.610549450549456L39.99999999999999,47.681428571428576L36.36363636363635,48.3743956043956L32.72727272727274,49.142087912087916L29.0909090909091,49.957802197802195L25.454545454545464,50.69505494505495L21.818181818181827,50.81725274725275L18.181818181818187,51.05351648351648L14.54545454545455,51.22318681318681L10.909090909090914,51.19076923076923L7.272727272727275,50.87472527472527L3.6363636363636376,50.10175824175824L0,48.15813186813187"></path></g></svg>