<svg viewBox="0,0,200,100"><g transform="translate(0,0)"></g><g class="fg-bars pos-rate"><g><rect x="200" y="48.12222222222222" width="2" height="51.87777777777778" id="pos-rate-0"></rect></g><g><rect x="196.36363636363637" y="40.44444444444445" width="2" height="59.55555555555555" id="pos-rate-1"></rect></g><g><rect x="192.72727272727272" y="38.911111111111104" width="2" height="61.088888888888896" id="pos-rate-2"></rect></g><g><rect x="189.0909090909091" y="32.96111111111111" width="2" height="67.03888888888889" id="pos-rate-3"></rect></g><g><rect x="185.45454545454544" y="68.17777777777778" width="2" height="31.822222222222223" id="pos-rate-4"></rect></g><g><rect x="181.8181818181818" y="60.46666666666667" width="2" height="39.53333333333333" id="pos-rate-5"></rect></g><g><rect x="178.1818181818182" y="40.738888888888894" width="2" height="59.261111111111106" id="pos-rate-6"></rect></g><g><rect x="174.54545454545456" y="33.44444444444444" width="2" height="66.55555555555556" id="pos-rate-7"></rect></g><g><rect x="170.9090909090909" y="27.03333333333333" width="2" height="72.96666666666667" id="pos-rate-8"></rect></g><g><rect x="167.27272727272728" y="24.472222222222218" width="2" height="75.52777777777779" id="pos-rate-9"></rect></g><g><rect x="163.63636363636363" y="17.04444444444444" width="2" height="82.95555555555556" id="pos-rate-10"></rect></g><g><rect x="160" y="59.78888888888889" width="2" height="40.21111111111111" id="pos-rate-11"></rect></g><g><rect x="156.36363636363637" y="51.794444444444444" width="2" height="48.205555555555556" id="pos-rate-12"></rect></g><g><rect x="152.72727272727275" y="27.03888888888889" width="2" height="72.96111111111111" id="pos-rate-13"></rect></g><g><rect x="149.0909090909091" y="23.822222222222223" width="2" height="76.17777777777778" id="pos-rate-14"></rect></g><g><rect x="145.45454545454547" y="17.600000000000005" width="2" height="82.39999999999999" id="pos-rate-15"></rect></g><g><rect x="141.8181818181818" y="15.422222222222226" width="2" height="84.57777777777777" id="pos-rate-16"></rect></g><g><rect x="138.1818181818182" y="11.983333333333334" width="2" height="88.01666666666667" id="pos-rate-17"></rect></g><g><rect x="134.54545454545453" y="55.58888888888889" width="2" height="44.41111111111111" id="pos-rate-18"></rect></g><g><rect x="130.9090909090909" y="47.52777777777778" width="2" height="52.47222222222222" id="pos-rate-19"></rect></g><g><rect x="127.27272727272727" y="24.438888888888886" width="2" height="75.56111111111112" id="pos-rate-20"></rect></g><g><rect x="123.63636363636363" y="19.505555555555553" width="2" height="80.49444444444444" id="pos-rate-21"></rect></g><g><rect x="120" y="15.033333333333331" width="2" height="84.96666666666667" id="pos-rate-22"></rect></g><g><rect x="116.36363636363636" y="11.222222222222221" width="2" height="88.77777777777777" id="pos-rate-23"></rect></g><g><rect x="112.72727272727275" y="10.811111111111115" width="2" height="89.18888888888888" id="pos-rate-24"></rect></g><g><rect x="109.09090909090908" y="52.81111111111111" width="2" height="47.18888888888889" id="pos-rate-25"></rect></g><g><rect x="105.45454545454547" y="47.144444444444446" width="2" height="52.855555555555554" id="pos-rate-26"></rect></g><g><rect x="101.81818181818181" y="29.288888888888888" width="2" height="70.71111111111111" id="pos-rate-27"></rect></g><g><rect x="98.18181818181819" y="24.027777777777782" width="2" height="75.97222222222221" id="pos-rate-28"></rect></g><g><rect x="94.54545454545456" y="22.71666666666666" width="2" height="77.28333333333333" id="pos-rate-29"></rect></g><g><rect x="90.90909090909092" y="21.105555555555554" width="2" height="78.89444444444445" id="pos-rate-30"></rect></g><g><rect x="87.27272727272728" y="22.938888888888886" width="2" height="77.06111111111112" id="pos-rate-31"></rect></g><g><rect x="83.63636363636364" y="53.68333333333333" width="2" height="46.31666666666667" id="pos-rate-32"></rect></g><g><rect x="80" y="53.3611111111111" width="2" height="46.6388888888889" id="pos-rate-33"></rect></g><g><rect x="76.36363636363637" y="39.07222222222222" width="2" height="60.92777777777778" id="pos-rate-34"></rect></g><g><rect x="72.72727272727273" y="35.33888888888889" width="2" height="64.66111111111111" id="pos-rate-35"></rect></g><g><rect x="69.0909090909091" y="34.86111111111111" width="2" height="65.13888888888889" id="pos-rate-36"></rect></g><g><rect x="65.45454545454545" y="38.09444444444444" width="2" height="61.90555555555556" id="pos-rate-37"></rect></g><g><rect x="61.81818181818181" y="35.45" width="2" height="64.55" id="pos-rate-38"></rect></g><g><rect x="58.18181818181818" y="64.72777777777779" width="2" height="35.27222222222221" id="pos-rate-39"></rect></g><g><rect x="54.54545454545454" y="62.87222222222222" width="2" height="37.12777777777778" id="pos-rate-40"></rect></g><g><rect x="50.90909090909091" y="55.49444444444445" width="2" height="44.50555555555555" id="pos-rate-41"></rect></g><g><rect x="47.272727272727266" y="54.26111111111111" width="2" height="45.73888888888889" id="pos-rate-42"></rect></g><g><rect x="43.636363636363626" y="51.788888888888884" width="2" height="48.211111111111116" id="pos-rate-43"></rect></g><g><rect x="39.99999999999999" y="54.099999999999994" width="2" height="45.900000000000006" id="pos-rate-44"></rect></g><g><rect x="36.36363636363635" y="53.91666666666667" width="2" height="46.08333333333333" id="pos-rate-45"></rect></g><g><rect x="32.72727272727274" y="73.75" width="2" height="26.25" id="pos-rate-46"></rect></g><g><rect x="29.0909090909091" y="74.38333333333334" width="2" height="25.61666666666666" id="pos-rate-47"></rect></g><g><rect x="25.454545454545464" y="67.18333333333332" width="2" height="32.81666666666668" id="pos-rate-48"></rect></g><g><rect x="21.818181818181827" y="67.76111111111112" width="2" height="32.23888888888888" id="pos-rate-49"></rect></g><g><rect x="18.181818181818187" y="69.38888888888889" width="2" height="30.611111111111114" id="pos-rate-50"></rect></g><g><rect x="14.54545454545455" y="70.36666666666666" width="2" height="29.63333333333334" id="pos-rate-51"></rect></g><g><rect x="10.909090909090914" y="70.46111111111111" width="2" height="29.53888888888889" id="pos-rate-52"></rect></g><g><rect x="7.272727272727275" y="82.78888888888889" width="2" height="17.21111111111111" id="pos-rate-53"></rect></g><g><rect x="3.6363636363636376" y="82.74444444444444" width="2" height="17.25555555555556" id="pos-rate-54"></rect></g><g><rect x="0" y="80.13333333333334" width="2" height="19.86666666666666" id="pos-rate-55"></rect></g></g><g class="fg-line pos-rate"><path d="M200,47.11746031746031L196.36363636363637,45.020634920634926L192.72727272727272,43.1047619047619L189.0909090909091,41.0420634920635L185.45454545454544,38.768253968253966L181.8181818181818,37.56984126984128L178.1818181818182,36.33095238095238L174.54545454545456,34.37380952380952L170.9090909090909,32.999206349206354L167.27272727272728,31.651587301587302L163.63636363636363,30.35873015873016L160,29.635714285714275L156.36363636363637,29.03571428571429L152.72727272727275,28.426190476190484L149.0909090909091,28.054761904761904L145.45454545454547,27.43809523809524L141.8181818181818,27.07142857142857L138.1818181818182,26.471428571428568L134.54545454545453,26.303968253968257L130.9090909090909,25.90714285714285L127.27272727272727,25.852380952380948L123.63636363636363,26.545238095238087L120,27.19126984126984L116.36363636363636,28.288888888888884L112.72727272727275,29.700793650793646L109.09090909090908,31.433333333333337L105.45454545454547,31.557936507936503L101.81818181818181,32.44603174603174L98.18181818181819,33.843650793650795L94.54545454545456,35.45952380952381L90.90909090909092,37.19444444444444L87.27272727272728,39.621428571428574L83.63636363636364,41.408730158730165L80,42.98650793650795L76.36363636363637,44.345238095238095L72.72727272727273,46.691269841269836L69.0909090909091,49.39444444444444L65.45454545454545,51.81269841269841L61.81818181818181,54.099206349206355L58.18181818181818,56.737301587301594L54.54545454545454,58.02619047619048L50.90909090909091,59.67063492063491L47.272727272727266,61.3404761904762L43.636363636363626,63.26904761904761L39.99999999999999,65.78333333333333L36.36363636363635,68.10714285714286L32.72727272727274,70.47063492063492L29.0909090909091,71.76190476190476L25.454545454545464,72.9563492063492L21.818181818181827,74.80634920634921L18.181818181818187,76.58888888888889L14.54545454545455,77.9984126984127L10.909090909090914,79.39444444444445L7.272727272727275,81.44206349206348L3.6363636363636376,82.68015873015872L0,83.80555555555556"></path></g></svg>