<svg viewBox="0,0,200,100"><g transform="translate(0,0)"></g><g class="fg-bars pos-rate"><g><rect x="200" y="41.93615384615384" width="2" height="58.06384615384616" id="pos-rate-0"></rect></g><g><rect x="196.36363636363637" y="4.527692307692311" width="2" height="95.4723076923077" id="pos-rate-1"></rect></g><g><rect x="192.72727272727272" y="22.135384615384613" width="2" height="77.86461538461539" id="pos-rate-2"></rect></g><g><rect x="189.0909090909091" y="23.142307692307696" width="2" height="76.8576923076923" id="pos-rate-3"></rect></g><g><rect x="185.45454545454544" y="19.929230769230767" width="2" height="80.07076923076923" id="pos-rate-4"></rect></g><g><rect x="181.8181818181818" y="20.47230769230769" width="2" height="79.5276923076923" id="pos-rate-5"></rect></g><g><rect x="178.1818181818182" y="68.25076923076922" width="2" height="31.749230769230778" id="pos-rate-6"></rect></g><g><rect x="174.54545454545456" y="43.04230769230769" width="2" height="56.95769230769231" id="pos-rate-7"></rect></g><g><rect x="170.9090909090909" y="5.000769230769231" width="2" height="94.99923076923076" id="pos-rate-8"></rect></g><g><rect x="167.27272727272728" y="23.63692307692308" width="2" height="76.36307692307692" id="pos-rate-9"></rect></g><g><rect x="163.63636363636363" y="23.27538461538462" width="2" height="76.72461538461538" id="pos-rate-10"></rect></g><g><rect x="160" y="22.981538461538463" width="2" height="77.01846153846154" id="pos-rate-11"></rect></g><g><rect x="156.36363636363637" y="26.770000000000003" width="2" height="73.22999999999999" id="pos-rate-12"></rect></g><g><rect x="152.72727272727275" y="71.34692307692308" width="2" height="28.653076923076924" id="pos-rate-13"></rect></g><g><rect x="149.0909090909091" y="45.16307692307693" width="2" height="54.83692307692307" id="pos-rate-14"></rect></g><g><rect x="145.45454545454547" y="15.95692307692308" width="2" height="84.04307692307692" id="pos-rate-15"></rect></g><g><rect x="141.8181818181818" y="32.92076923076923" width="2" height="67.07923076923078" id="pos-rate-16"></rect></g><g><rect x="138.1818181818182" y="37.96846153846154" width="2" height="62.03153846153846" id="pos-rate-17"></rect></g><g><rect x="134.54545454545453" y="31.19153846153846" width="2" height="68.80846153846154" id="pos-rate-18"></rect></g><g><rect x="130.9090909090909" y="33.482307692307685" width="2" height="66.51769230769231" id="pos-rate-19"></rect></g><g><rect x="127.27272727272727" y="73.29923076923077" width="2" height="26.700769230769225" id="pos-rate-20"></rect></g><g><rect x="123.63636363636363" y="51.46923076923077" width="2" height="48.53076923076923" id="pos-rate-21"></rect></g><g><rect x="120" y="20.569230769230774" width="2" height="79.43076923076923" id="pos-rate-22"></rect></g><g><rect x="116.36363636363636" y="34.52615384615385" width="2" height="65.47384615384615" id="pos-rate-23"></rect></g><g><rect x="112.72727272727275" y="35.86769230769231" width="2" height="64.13230769230769" id="pos-rate-24"></rect></g><g><rect x="109.09090909090908" y="31.868461538461535" width="2" height="68.13153846153847" id="pos-rate-25"></rect></g><g><rect x="105.45454545454547" y="39.32769230769231" width="2" height="60.67230769230769" id="pos-rate-26"></rect></g><g><rect x="101.81818181818181" y="77.13461538461539" width="2" height="22.865384615384613" id="pos-rate-27"></rect></g><g><rect x="98.18181818181819" y="54.45692307692307" width="2" height="45.54307692307693" id="pos-rate-28"></rect></g><g><rect x="94.54545454545456" y="26.320769230769226" width="2" height="73.67923076923077" id="pos-rate-29"></rect></g><g><rect x="90.90909090909092" y="37.681538461538466" width="2" height="62.318461538461534" id="pos-rate-30"></rect></g><g><rect x="87.27272727272728" y="35.71461538461539" width="2" height="64.2853846153846" id="pos-rate-31"></rect></g><g><rect x="83.63636363636364" y="34.89076923076924" width="2" height="65.10923076923076" id="pos-rate-32"></rect></g><g><rect x="80" y="44.92923076923076" width="2" height="55.07076923076924" id="pos-rate-33"></rect></g><g><rect x="76.36363636363637" y="80.3176923076923" width="2" height="19.682307692307702" id="pos-rate-34"></rect></g><g><rect x="72.72727272727273" y="56.95230769230769" width="2" height="43.04769230769231" id="pos-rate-35"></rect></g><g><rect x="69.0909090909091" y="29.66384615384615" width="2" height="70.33615384615385" id="pos-rate-36"></rect></g><g><rect x="65.45454545454545" y="40.59615384615385" width="2" height="59.40384615384615" id="pos-rate-37"></rect></g><g><rect x="61.81818181818181" y="40.818461538461534" width="2" height="59.181538461538466" id="pos-rate-38"></rect></g><g><rect x="58.18181818181818" y="39.24999999999999" width="2" height="60.75000000000001" id="pos-rate-39"></rect></g><g><rect x="54.54545454545454" y="46.760000000000005" width="2" height="53.239999999999995" id="pos-rate-40"></rect></g><g><rect x="50.90909090909091" y="79.64" width="2" height="20.36" id="pos-rate-41"></rect></g><g><rect x="47.272727272727266" y="57.456153846153846" width="2" height="42.543846153846154" id="pos-rate-42"></rect></g><g><rect x="43.636363636363626" y="34.54076923076923" width="2" height="65.45923076923077" id="pos-rate-43"></rect></g><g><rect x="39.99999999999999" y="46.092307692307685" width="2" height="53.907692307692315" id="pos-rate-44"></rect></g><g><rect x="36.36363636363635" y="46.59076923076923" width="2" height="53.40923076923077" id="pos-rate-45"></rect></g><g><rect x="32.72727272727274" y="44.38076923076923" width="2" height="55.61923076923077" id="pos-rate-46"></rect></g><g><rect x="29.0909090909091" y="47.678461538461534" width="2" height="52.321538461538466" id="pos-rate-47"></rect></g><g><rect x="25.454545454545464" y="81.29384615384615" width="2" height="18.706153846153853" id="pos-rate-48"></rect></g><g><rect x="21.818181818181827" y="58.67769230769231" width="2" height="41.32230769230769" id="pos-rate-49"></rect></g><g><rect x="18.181818181818187" y="34.253846153846155" width="2" height="65.74615384615385" id="pos-rate-50"></rect></g><g><rect x="14.54545454545455" y="43.78076923076924" width="2" height="56.21923076923076" id="pos-rate-51"></rect></g><g><rect x="10.909090909090914" y="41.08461538461539" width="2" height="58.91538461538461" id="pos-rate-52"></rect></g><g><rect x="7.272727272727275" y="30.77384615384615" width="2" height="69.22615384615385" id="pos-rate-53"></rect></g><g><rect x="3.6363636363636376" y="67.22846153846153" width="2" height="32.77153846153847" id="pos-rate-54"></rect></g><g><rect x="0" y="97.20153846153846" width="2" height="2.798461538461538" id="pos-rate-55"></rect></g></g><g class="fg-line pos-rate"><path d="M200,28.62769230769231L196.36363636363637,28.78571428571428L192.72727272727272,28.853296703296706L189.0909090909091,29.067802197802195L185.45454545454544,29.08681318681319L181.8181818181818,29.522857142857152L178.1818181818182,30.42252747252747L174.54545454545456,30.864835164835156L170.9090909090909,31.167802197802196L167.27272727272728,32.73296703296703L163.63636363636363,34.059230769230766L160,36.15824175824176L156.36363636363637,37.33109890109889L152.72727272727275,38.29L149.0909090909091,38.5689010989011L145.45454545454547,39.469780219780226L141.8181818181818,40.128681318681316L138.1818181818182,40.35802197802197L134.54545454545453,40.05791208791209L130.9090909090909,40.15461538461539L127.27272727272727,40.98967032967033L123.63636363636363,41.53758241758242L120,41.96439560439561L116.36363636363636,42.78604395604396L112.72727272727275,43.23681318681318L109.09090909090908,43.214945054945055L105.45454545454547,43.64670329670331L101.81818181818181,44.44692307692307L98.18181818181819,44.90164835164835L94.54545454545456,45.25813186813187L90.90909090909092,45.73571428571428L87.27272727272728,46.152087912087914L83.63636363636364,46.88120879120879L80,47.503956043956045L76.36363636363637,47.7654945054945L72.72727272727273,47.668681318681315L69.0909090909091,47.74065934065934L65.45454545454545,48.43736263736265L61.81818181818181,49.22252747252747L58.18181818181818,50.047142857142866L54.54545454545454,50.780109890109884L50.90909090909091,50.91131868131868L47.272727272727266,51.14758241758241L43.636363636363626,51.32208791208791L39.99999999999999,51.28109890109891L36.36363636363635,50.95087912087912L32.72727272727274,50.164285714285704L29.0909090909091,48.220439560439566L25.454545454545464,51.0132967032967L21.818181818181827,53.28582417582417L18.181818181818187,53.87626373626373L14.54545454545455,53.57934065934066L10.909090909090914,53.08230769230769L7.272727272727275,52.4065934065934L3.6363636363636376,52.72604395604395L0,49.200769230769225"></path></g></svg>