<svg viewBox="0,0,200,100"><g transform="translate(0,0)"></g><g class="fg-bars pos-rate"><g><rect x="200" y="36.99444444444444" width="2" height="63.00555555555556" id="pos-rate-0"></rect></g><g><rect x="196.36363636363637" y="72.17222222222222" width="2" height="27.827777777777783" id="pos-rate-1"></rect></g><g><rect x="192.72727272727272" y="62.74444444444445" width="2" height="37.25555555555555" id="pos-rate-2"></rect></g><g><rect x="189.0909090909091" y="43.05555555555556" width="2" height="56.94444444444444" id="pos-rate-3"></rect></g><g><rect x="185.45454545454544" y="35.42777777777778" width="2" height="64.57222222222222" id="pos-rate-4"></rect></g><g><rect x="181.8181818181818" y="28.849999999999998" width="2" height="71.15" id="pos-rate-5"></rect></g><g><rect x="178.1818181818182" y="26.038888888888888" width="2" height="73.96111111111111" id="pos-rate-6"></rect></g><g><rect x="174.54545454545456" y="18.61666666666667" width="2" height="81.38333333333333" id="pos-rate-7"></rect></g><g><rect x="170.9090909090909" y="60.677777777777784" width="2" height="39.322222222222216" id="pos-rate-8"></rect></g><g><rect x="167.27272727272728" y="52.47777777777778" width="2" height="47.52222222222222" id="pos-rate-9"></rect></g><g><rect x="163.63636363636363" y="27.611111111111107" width="2" height="72.38888888888889" id="pos-rate-10"></rect></g><g><rect x="160" y="24.22777777777778" width="2" height="75.77222222222221" id="pos-rate-11"></rect></g><g><rect x="156.36363636363637" y="18.094444444444445" width="2" height="81.90555555555555" id="pos-rate-12"></rect></g><g><rect x="152.72727272727275" y="15.988888888888885" width="2" height="84.01111111111112" id="pos-rate-13"></rect></g><g><rect x="149.0909090909091" y="12.244444444444447" width="2" height="87.75555555555556" id="pos-rate-14"></rect></g><g><rect x="145.45454545454547" y="55.90555555555555" width="2" height="44.09444444444445" id="pos-rate-15"></rect></g><g><rect x="141.8181818181818" y="47.705555555555556" width="2" height="52.294444444444444" id="pos-rate-16"></rect></g><g><rect x="138.1818181818182" y="24.6" width="2" height="75.4" id="pos-rate-17"></rect></g><g><rect x="134.54545454545453" y="19.91111111111111" width="2" height="80.08888888888889" id="pos-rate-18"></rect></g><g><rect x="130.9090909090909" y="15.233333333333333" width="2" height="84.76666666666667" id="pos-rate-19"></rect></g><g><rect x="127.27272727272727" y="11.338888888888887" width="2" height="88.66111111111111" id="pos-rate-20"></rect></g><g><rect x="123.63636363636363" y="10.938888888888886" width="2" height="89.06111111111112" id="pos-rate-21"></rect></g><g><rect x="120" y="52.87777777777778" width="2" height="47.12222222222222" id="pos-rate-22"></rect></g><g><rect x="116.36363636363636" y="47.12777777777778" width="2" height="52.87222222222222" id="pos-rate-23"></rect></g><g><rect x="112.72727272727275" y="29.38333333333333" width="2" height="70.61666666666667" id="pos-rate-24"></rect></g><g><rect x="109.09090909090908" y="24.083333333333336" width="2" height="75.91666666666666" id="pos-rate-25"></rect></g><g><rect x="105.45454545454547" y="22.805555555555557" width="2" height="77.19444444444444" id="pos-rate-26"></rect></g><g><rect x="101.81818181818181" y="21.11666666666666" width="2" height="78.88333333333334" id="pos-rate-27"></rect></g><g><rect x="98.18181818181819" y="23.022222222222222" width="2" height="76.97777777777777" id="pos-rate-28"></rect></g><g><rect x="94.54545454545456" y="53.75" width="2" height="46.25" id="pos-rate-29"></rect></g><g><rect x="90.90909090909092" y="53.388888888888886" width="2" height="46.611111111111114" id="pos-rate-30"></rect></g><g><rect x="87.27272727272728" y="39.09444444444444" width="2" height="60.90555555555556" id="pos-rate-31"></rect></g><g><rect x="83.63636363636364" y="35.35" width="2" height="64.65" id="pos-rate-32"></rect></g><g><rect x="80" y="34.86666666666667" width="2" height="65.13333333333333" id="pos-rate-33"></rect></g><g><rect x="76.36363636363637" y="38.10555555555556" width="2" height="61.89444444444444" id="pos-rate-34"></rect></g><g><rect x="72.72727272727273" y="35.45" width="2" height="64.55" id="pos-rate-35"></rect></g><g><rect x="69.0909090909091" y="64.71666666666667" width="2" height="35.28333333333333" id="pos-rate-36"></rect></g><g><rect x="65.45454545454545" y="62.84444444444445" width="2" height="37.15555555555555" id="pos-rate-37"></rect></g><g><rect x="61.81818181818181" y="55.49999999999999" width="2" height="44.50000000000001" id="pos-rate-38"></rect></g><g><rect x="58.18181818181818" y="54.32222222222223" width="2" height="45.67777777777777" id="pos-rate-39"></rect></g><g><rect x="54.54545454545454" y="51.77777777777778" width="2" height="48.22222222222222" id="pos-rate-40"></rect></g><g><rect x="50.90909090909091" y="54.12777777777777" width="2" height="45.87222222222223" id="pos-rate-41"></rect></g><g><rect x="47.272727272727266" y="53.94444444444444" width="2" height="46.05555555555556" id="pos-rate-42"></rect></g><g><rect x="43.636363636363626" y="73.82222222222222" width="2" height="26.177777777777777" id="pos-rate-43"></rect></g><g><rect x="39.99999999999999" y="74.42222222222222" width="2" height="25.577777777777783" id="pos-rate-44"></rect></g><g><rect x="36.36363636363635" y="67.21666666666667" width="2" height="32.78333333333333" id="pos-rate-45"></rect></g><g><rect x="32.72727272727274" y="67.80555555555556" width="2" height="32.19444444444444" id="pos-rate-46"></rect></g><g><rect x="29.0909090909091" y="69.42777777777778" width="2" height="30.572222222222223" id="pos-rate-47"></rect></g><g><rect x="25.454545454545464" y="70.39999999999999" width="2" height="29.60000000000001" id="pos-rate-48"></rect></g><g><rect x="21.818181818181827" y="70.47222222222223" width="2" height="29.52777777777777" id="pos-rate-49"></rect></g><g><rect x="18.181818181818187" y="82.78888888888889" width="2" height="17.21111111111111" id="pos-rate-50"></rect></g><g><rect x="14.54545454545455" y="82.7611111111111" width="2" height="17.238888888888894" id="pos-rate-51"></rect></g><g><rect x="10.909090909090914" y="80.13333333333334" width="2" height="19.86666666666666" id="pos-rate-52"></rect></g><g><rect x="7.272727272727275" y="80.25" width="2" height="19.75" id="pos-rate-53"></rect></g><g><rect x="3.6363636363636376" y="79.26111111111112" width="2" height="20.73888888888888" id="pos-rate-54"></rect></g><g><rect x="0" y="80.15" width="2" height="19.849999999999994" id="pos-rate-55"></rect></g></g><g class="fg-line pos-rate"><path d="M200,43.61190476190476L196.36363636363637,40.98650793650794L192.72727272727272,39.34444444444445L189.0909090909091,37.87777777777778L185.45454545454544,35.67142857142858L181.8181818181818,34.07142857142858L178.1818181818182,32.534920634920624L174.54545454545456,31.099206349206355L170.9090909090909,30.188888888888886L167.27272727272728,29.507142857142853L163.63636363636363,28.825396825396833L160,28.395238095238096L156.36363636363637,27.778571428571432L152.72727272727275,27.369841269841277L149.0909090909091,26.70555555555556L145.45454545454547,26.51904761904762L141.8181818181818,26.086507936507942L138.1818181818182,26.003968253968257L134.54545454545453,26.687301587301594L130.9090909090909,27.28333333333334L127.27272727272727,28.36507936507937L123.63636363636363,29.761904761904756L120,31.488095238095237L116.36363636363636,31.612698412698414L112.72727272727275,32.50714285714286L109.09090909090908,33.894444444444446L105.45454545454547,35.50396825396825L101.81818181818181,37.22698412698413L98.18181818181819,39.65396825396825L94.54545454545456,41.42936507936508L90.90909090909092,42.99603174603174L87.27272727272728,44.346825396825395L83.63636363636364,46.69047619047618L80,49.40079365079365L76.36363636363637,51.81666666666666L72.72727272727273,54.10555555555556L69.0909090909091,56.74761904761905L65.45454545454545,58.0484126984127L61.81818181818181,59.70238095238095L58.18181818181818,61.37619047619047L54.54545454545454,63.30238095238096L50.90909090909091,65.82380952380953L47.272727272727266,68.1484126984127L43.636363636363626,70.5095238095238L39.99999999999999,71.7904761904762L36.36363636363635,72.98174603174603L32.72727272727274,74.82698412698413L29.0909090909091,76.60476190476192L25.454545454545464,78.00952380952381L21.818181818181827,79.40238095238095L18.181818181818187,81.44761904761904L14.54545454545455,82.68571428571428L10.909090909090914,83.80873015873016L7.272727272727275,85.05396825396825L3.6363636363636376,86.17539682539682L0,87.55714285714285"></path></g></svg>