<svg id="Layer_1" data-name="Layer 1" xmlns="http://www.w3.org/2000/svg" viewBox="0 0 64 64"><defs><style>.cls-1{fill:#fff;fill-rule:evenodd;}</style></defs><title>plus-white</title><path class="cls-1" d="M36,0a3.71,3.71,0,0,1,2.83,1.27A4.41,4.41,0,0,1,40,4.36V24H59.64a4.36,4.36,0,0,1,2.9,1l.19.16A3.68,3.68,0,0,1,64,28v8a3.71,3.71,0,0,1-1.27,2.83A4.41,4.41,0,0,1,59.64,40H40V59.64a4.42,4.42,0,0,1-1,2.9l-.16.19A3.68,3.68,0,0,1,36,64H28a3.68,3.68,0,0,1-2.83-1.27A4.41,4.41,0,0,1,24,59.64V40H4.36a4.42,4.42,0,0,1-2.9-1l-.19-.16A3.69,3.69,0,0,1,0,36V28a3.68,3.68,0,0,1,1.27-2.83A4.41,4.41,0,0,1,4.36,24H24V4.36a4.36,4.36,0,0,1,1-2.9l.16-.19A3.68,3.68,0,0,1,28,0Z"/></svg>